<svg width="522" height="155" viewBox="0 0 522 155" fill="none" xmlns="http://www.w3.org/2000/svg">
<g clip-path="url(#clip0_1_43)">
<path d="M28.094 11.8547C29.3675 11.8586 30.6201 12.1784 31.7395 12.7856C32.3175 13.1092 32.8422 13.5198 33.2953 14.0029C33.7636 14.5079 34.1226 15.104 34.3499 15.7541C34.5679 16.4052 34.6434 17.0957 34.5712 17.7786L34.5061 18.2733L34.4085 18.7486L34.2718 19.2108C34.2197 19.3605 34.1741 19.5102 34.1156 19.6599C33.6454 20.7922 33.0469 21.8668 32.3319 22.8628C31.6809 23.8457 30.9778 24.8157 30.4115 25.7726C29.8294 26.7184 29.4626 27.7808 29.3374 28.8843C29.2994 29.4281 29.3433 29.9745 29.4676 30.5052C29.5756 31.0111 29.8212 31.4774 30.1771 31.8528C30.3702 32.0398 30.5895 32.1977 30.8281 32.3215C31.0679 32.4477 31.3184 32.5522 31.5767 32.6339C32.1166 32.809 32.6767 32.914 33.2432 32.9464C33.3292 32.9619 33.4065 33.0083 33.4607 33.0768C33.5148 33.1453 33.542 33.2312 33.5372 33.3184C33.5324 33.4056 33.4959 33.4881 33.4346 33.5503C33.3733 33.6124 33.2913 33.65 33.2042 33.656H33.1586C32.5539 33.5766 31.9541 33.4636 31.3619 33.3175C31.0568 33.2326 30.7604 33.1193 30.4766 32.979C30.1819 32.8296 29.9101 32.6389 29.6694 32.4126C29.1909 31.948 28.8507 31.3599 28.6864 30.7136C28.5213 30.1028 28.4467 29.4711 28.4651 28.8387C28.5486 27.5883 28.9088 26.3721 29.5196 25.2779C30.0795 24.1973 30.75 23.2078 31.3684 22.2183C31.9908 21.2773 32.5082 20.271 32.9112 19.2173C33.0913 18.7178 33.2051 18.197 33.2498 17.6679C33.2928 17.1761 33.2284 16.6807 33.061 16.2163C32.889 15.7563 32.623 15.3372 32.2798 14.9859C31.9134 14.6245 31.5021 14.3116 31.056 14.055C30.5854 13.8003 30.0956 13.5827 29.5913 13.404C29.077 13.2153 28.5497 13.0655 28.0029 12.9158C27.8806 12.8816 27.7748 12.8044 27.7048 12.6984C27.6349 12.5925 27.6056 12.4648 27.6222 12.339C27.6388 12.2131 27.7003 12.0975 27.7953 12.0133C27.8904 11.9291 28.0126 11.882 28.1396 11.8807L28.094 11.8547Z" fill="white"/>
<path d="M36.6934 72.8578C36.7778 72.7704 36.8249 72.6537 36.8249 72.5323C36.8249 72.4108 36.7778 72.2941 36.6934 72.2068C36.6069 72.1209 36.4899 72.0727 36.3679 72.0727C36.246 72.0727 36.129 72.1209 36.0425 72.2068C35.1109 73.1867 34.0078 73.9876 32.7876 74.5698C31.5839 75.1494 30.2799 75.4919 28.9468 75.5788C27.6237 75.6645 26.2967 75.4898 25.0409 75.0645C24.4207 74.8563 23.8214 74.5904 23.2507 74.2704C22.6808 73.9476 22.1406 73.5751 21.6363 73.1572C21.6114 73.1315 21.5829 73.1096 21.5517 73.0921C21.36 72.9687 21.1272 72.9264 20.9044 72.9746C20.6816 73.0228 20.4871 73.1576 20.3636 73.3492C20.2402 73.5409 20.1979 73.7737 20.2462 73.9965C20.2944 74.2193 20.4291 74.4138 20.6208 74.5373C21.2428 74.9436 21.8958 75.3006 22.5737 75.6049C24.5939 76.5331 26.827 76.8997 29.0379 76.666C30.4895 76.5082 31.8996 76.0845 33.1977 75.4161C34.4919 74.7552 35.6721 73.8915 36.6934 72.8578Z" fill="white"/>
<path d="M65.0566 149.941C65.3235 148.919 65.6099 147.897 65.8508 146.868L66.1697 145.319L66.3325 144.537L66.4106 144.153L66.4692 143.756L66.7035 142.187C66.7752 141.667 66.8598 141.146 66.8988 140.619L67.0486 139.043L67.1202 138.256L67.1527 137.461C67.3786 133.254 67.1428 129.034 66.4497 124.878C66.3585 124.364 66.2869 123.843 66.1828 123.329L65.8443 121.792L65.675 121.024L65.5904 120.64L65.4862 120.262L65.0696 118.746C64.4919 116.736 63.8008 114.76 62.9995 112.828C62.8172 112.34 62.5828 111.871 62.3485 111.396L61.6975 109.977C61.5934 109.736 61.4697 109.508 61.346 109.28L60.9749 108.59L60.2393 107.21L58.6184 104.541L57.7266 103.239L57.2839 102.588C57.1342 102.38 56.9779 102.178 56.8282 101.976C55.5718 100.356 54.1071 98.8123 52.688 97.1784C51.1885 95.5398 49.85 93.761 48.691 91.8664C48.1078 90.8687 47.6362 89.81 47.2848 88.7091C46.9359 87.5802 46.7474 86.4078 46.725 85.2264C46.725 84.9269 46.725 84.634 46.725 84.3346C46.725 84.0351 46.7706 83.7487 46.8161 83.4622C46.8617 83.1758 46.8943 82.8828 46.9659 82.5899L47.0765 82.1407C47.1091 81.9975 47.1612 81.8543 47.2067 81.7111C47.5715 80.6277 48.0516 79.5867 48.6389 78.6059C49.739 76.653 50.9824 74.9409 52.0695 73.1442C52.6159 72.2675 53.1052 71.3564 53.5342 70.4166C53.9509 69.521 54.2338 68.5691 54.374 67.5914C54.4798 66.8924 54.4421 66.1792 54.2633 65.4952L54.1722 65.1567L54.0485 64.8247C53.8789 64.3851 53.6605 63.9658 53.3975 63.5748C53.1011 63.1684 52.7816 62.7794 52.4406 62.4096C51.7375 61.6414 50.9499 60.9058 50.2208 60.0661C49.8426 59.6404 49.4987 59.1854 49.1922 58.7055C48.8816 58.2144 48.6261 57.6904 48.4306 57.1432C48.3753 56.9973 48.3803 56.8354 48.4444 56.6932C48.5085 56.5509 48.6264 56.44 48.7723 56.3848C48.9182 56.3295 49.0801 56.3345 49.2223 56.3986C49.3645 56.4627 49.4755 56.5806 49.5307 56.7265C49.9157 57.6435 50.475 58.477 51.1777 59.1807C51.8808 59.9294 52.6815 60.6259 53.4626 61.4136C53.8617 61.8247 54.2356 62.2595 54.5823 62.7155C54.9428 63.1894 55.2444 63.7053 55.4807 64.2518L55.6564 64.6685L55.7866 65.0981C55.871 65.3886 55.9362 65.6844 55.9819 65.9835C56.0663 66.5765 56.0794 67.1775 56.021 67.7737C55.9055 68.9303 55.6158 70.0627 55.1617 71.1327C54.733 72.1558 54.2417 73.1515 53.6905 74.1142C52.6164 76.015 51.4251 77.8052 50.4356 79.628C49.9484 80.5017 49.5556 81.4248 49.2638 82.3816C49.2638 82.4923 49.1987 82.6094 49.1727 82.7201L49.1011 83.0586C49.0555 83.28 49.036 83.5338 49.0034 83.7682C48.9709 84.0025 48.9644 84.2499 48.9448 84.4908C48.9253 84.7317 48.9448 84.9725 48.9448 85.2069C48.9888 86.1669 49.1686 87.1159 49.4787 88.0256C49.803 88.9548 50.2287 89.8455 50.7481 90.6816C51.8565 92.4209 53.1273 94.0513 54.5433 95.5509C55.9624 97.1198 57.4466 98.6886 58.8267 100.447C58.996 100.668 59.1717 100.896 59.328 101.098L59.8032 101.749L60.7471 103.103C61.32 104.034 61.9058 104.971 62.4527 105.921L63.2143 107.38L63.5984 108.109C63.7307 108.35 63.8502 108.597 63.9564 108.851L64.6074 110.355C64.8222 110.856 65.0631 111.351 65.2584 111.871C66.0636 113.907 66.7376 115.992 67.2764 118.114L67.667 119.709L67.7646 120.106L67.8428 120.51L67.9925 121.311L68.2919 122.918C68.3896 123.459 68.4417 124.006 68.5198 124.539C69.083 128.857 69.1724 133.222 68.7867 137.559L68.7216 138.373L68.6174 139.18L68.4091 140.794C68.3505 141.328 68.2464 141.862 68.1487 142.396L67.8623 143.997L67.7907 144.394L67.6995 144.791L67.5173 145.586L67.1592 147.167C67.029 147.695 66.8663 148.209 66.7231 148.736L66.2934 150.299C66.2733 150.386 66.2354 150.468 66.182 150.54C66.1287 150.612 66.0612 150.672 65.9836 150.716C65.906 150.761 65.8201 150.789 65.7311 150.799C65.6422 150.809 65.5522 150.8 65.4667 150.774C65.2954 150.725 65.1499 150.611 65.0611 150.457C64.9723 150.303 64.9474 150.12 64.9915 149.947L65.0566 149.941Z" fill="white"/>
<path d="M75.5698 111.611C68.011 106.688 62.4856 99.1998 60.0115 90.5253C59.8357 89.9069 59.6795 89.282 59.5362 88.657C59.4646 88.3446 59.406 88.0061 59.3409 87.7066L59.1977 86.7562C58.8267 84.1938 58.8267 81.5914 59.1977 79.0291C59.3763 77.7608 59.6306 76.5043 59.9594 75.2664C60.1286 74.6154 60.3369 74.0165 60.5583 73.4241C60.7796 72.8318 61.0009 72.2394 61.2093 71.6665C61.6707 70.5569 62.0175 69.403 62.2443 68.2228C62.4301 67.0668 62.4036 65.8866 62.1662 64.7401C61.9139 63.5972 61.4382 62.5153 60.7666 61.5568C60.0768 60.5634 59.2704 59.6564 58.3645 58.8552C58.2782 58.7793 58.2255 58.6721 58.2182 58.5574C58.2109 58.4426 58.2495 58.3296 58.3254 58.2433C58.4014 58.157 58.5085 58.1044 58.6233 58.097C58.738 58.0897 58.851 58.1283 58.9373 58.2043C59.9268 59.0136 60.8319 59.9209 61.6389 60.9123C62.4242 61.9736 62.9927 63.1791 63.3119 64.4602C63.6213 65.7381 63.6941 67.0619 63.5267 68.366C63.3499 69.6395 63.0669 70.8959 62.6805 72.1222C62.5047 72.7276 62.3224 73.32 62.1662 73.9059C62.01 74.4917 61.8733 75.0646 61.7691 75.6505C61.547 76.8349 61.3862 78.0299 61.2874 79.2309C61.0931 81.6189 61.1718 84.0214 61.5217 86.3916C61.6129 86.9775 61.7235 87.5569 61.8472 88.1428C61.9709 88.7286 62.1206 89.308 62.2769 89.8874C62.5956 91.0474 62.9737 92.1903 63.4096 93.3115C64.2721 95.5672 65.3467 97.736 66.6189 99.7888C69.1926 103.925 72.4659 107.581 76.2924 110.595C76.3753 110.706 76.4207 110.84 76.4221 110.979C76.4236 111.117 76.3809 111.252 76.3004 111.364C76.2199 111.477 76.1057 111.561 75.9744 111.604C75.843 111.647 75.7013 111.647 75.5698 111.604V111.611Z" fill="white"/>
<path d="M18.3554 30.0299C18.0246 29.7382 17.7157 29.4228 17.431 29.086C16.8595 28.4122 16.3761 27.6685 15.9923 26.8727C15.9859 26.8458 15.9724 26.821 15.9533 26.801C15.8201 26.6172 15.6222 26.4905 15.3994 26.4466C15.1766 26.4027 14.9455 26.4448 14.7525 26.5644C14.5595 26.684 14.4189 26.8722 14.3591 27.0913C14.2993 27.3103 14.3246 27.5439 14.43 27.745C14.9647 28.6154 15.6006 29.4196 16.3243 30.1406C16.6859 30.5002 17.0732 30.8331 17.4831 31.1366C17.8971 31.4384 18.3322 31.7103 18.785 31.9503C19.69 32.4244 20.6663 32.7477 21.6754 32.9072C22.6734 33.0612 23.6883 33.0721 24.6894 32.9398C24.8292 32.9156 24.9538 32.8369 25.0356 32.7209C25.1173 32.6049 25.1497 32.4612 25.1255 32.3214C25.1014 32.1815 25.0226 32.057 24.9067 31.9752C24.7907 31.8934 24.647 31.861 24.5071 31.8852C23.6255 32.0294 22.7246 32.0073 21.8511 31.8201C20.9859 31.6253 20.1589 31.2887 19.4034 30.8241C19.0361 30.584 18.6859 30.3186 18.3554 30.0299Z" fill="white"/>
<path d="M9.93824 28.025C10.301 28.7566 10.7188 29.4595 11.1881 30.1277C11.647 30.7966 12.1586 31.4279 12.7179 32.0156C13.2791 32.6082 13.8912 33.1506 14.5471 33.6365C15.8566 34.642 17.3918 35.3124 19.0193 35.5894C19.1543 35.6118 19.2927 35.5814 19.406 35.5046C19.5193 35.4279 19.5987 35.3105 19.6279 35.1769C19.6572 35.0432 19.634 34.9034 19.5631 34.7863C19.4923 34.6693 19.3792 34.5839 19.2472 34.5478C17.8686 34.1257 16.5996 33.4057 15.5301 32.4387C14.4498 31.4715 13.5176 30.3507 12.7634 29.1122C12.3801 28.5024 12.0429 27.8648 11.7544 27.2048C11.4665 26.5585 11.2377 25.8874 11.0709 25.1998C10.7574 23.8126 10.6651 22.3845 10.7975 20.9684C10.8496 20.2459 10.9602 19.5167 11.0774 18.7811C11.2246 17.9839 11.3094 17.1764 11.3313 16.366C11.3418 15.9312 11.3222 15.4962 11.2727 15.0641C11.2153 14.6536 11.1327 14.247 11.0253 13.8467C10.8105 13.059 10.5631 12.3495 10.4069 11.6594C10.0798 10.2334 10.018 8.75931 10.2246 7.3109C10.3437 6.59721 10.5469 5.90014 10.83 5.23427C10.967 4.90394 11.128 4.5841 11.3118 4.27733C11.4932 3.97554 11.6978 3.68826 11.9237 3.41806C12.1503 3.15653 12.401 2.91679 12.6723 2.70197C12.9435 2.49565 13.2359 2.31889 13.5446 2.17468C13.856 2.0397 14.1813 1.93927 14.5146 1.87522C14.8477 1.81877 15.1864 1.8013 15.5236 1.82315C16.2125 1.87191 16.8808 2.07909 17.4765 2.42856C18.0704 2.77622 18.5831 3.24674 18.9803 3.80863C19.3935 4.39083 19.7223 5.02861 19.9568 5.70298C20.206 6.38473 20.3785 7.09218 20.471 7.81216C20.6964 9.22643 20.5529 10.6749 20.0544 12.0175C19.927 12.3332 19.7701 12.6361 19.5857 12.9223C19.3991 13.1987 19.1806 13.4522 18.9347 13.6775C18.8162 13.7902 18.69 13.8946 18.5572 13.9899C18.4246 14.0845 18.2853 14.1693 18.1405 14.2438L17.9257 14.361L17.6979 14.4521C17.5486 14.5099 17.3965 14.5598 17.2422 14.6019C16.6574 14.7562 16.0358 14.6817 15.5041 14.3935C14.9788 14.0827 14.5835 13.5926 14.3909 13.0135C14.1478 12.3589 14.0009 11.6726 13.9547 10.9759C13.8997 10.3411 14.0285 9.70377 14.3258 9.14014C14.457 8.90278 14.6442 8.70105 14.8711 8.55244C15.098 8.40383 15.3577 8.31283 15.6277 8.28736C15.8976 8.30905 16.1554 8.40855 16.3699 8.5738C16.5961 8.73799 16.7702 8.96404 16.8711 9.22477C16.9037 9.32272 16.9701 9.40592 17.0583 9.45956C17.1465 9.51319 17.2509 9.5338 17.3528 9.51772C17.4671 9.49852 17.5693 9.43526 17.6375 9.34153C17.7056 9.24781 17.7343 9.1311 17.7174 9.01646C17.6405 8.53686 17.4125 8.0944 17.0664 7.75358C16.8934 7.58692 16.6985 7.44455 16.487 7.33042C16.2578 7.20892 16.0087 7.12955 15.7514 7.09608C15.2408 7.04258 14.7266 7.15684 14.2867 7.42157C13.864 7.65811 13.5045 7.99305 13.2386 8.39804C12.9834 8.79613 12.8025 9.23727 12.7048 9.7C12.62 10.1285 12.5851 10.5654 12.6007 11.002C12.6152 11.4249 12.6697 11.8456 12.7634 12.2583C12.8473 12.6659 12.9627 13.0664 13.1085 13.4561C13.4119 14.3469 14.0268 15.0982 14.8401 15.5718C15.6741 16.0253 16.6503 16.1417 17.5677 15.8973C17.7896 15.8443 18.0072 15.7746 18.2186 15.689L18.5246 15.5588L18.8175 15.4091C19.0109 15.3005 19.1978 15.181 19.3774 15.051C19.5532 14.9207 19.7206 14.7793 19.8786 14.6279C20.197 14.3255 20.4788 13.9868 20.7184 13.6189C20.9454 13.2561 21.1372 12.8724 21.2913 12.4732C21.5885 11.6931 21.7642 10.8719 21.812 10.0385C21.8708 9.22585 21.8381 8.40917 21.7144 7.60384C21.5919 6.80151 21.3869 6.01397 21.1025 5.2538C20.8164 4.47994 20.4266 3.7485 19.9437 3.07953C19.4409 2.39194 18.7973 1.81939 18.0559 1.40002C16.9288 0.761444 15.6158 0.531502 14.3388 0.749042C13.9161 0.829336 13.5035 0.955946 13.1085 1.1266C12.722 1.30456 12.3555 1.52276 12.0148 1.77758C11.6808 2.0348 11.3713 2.32247 11.0904 2.63687C10.8187 2.95304 10.5727 3.29045 10.3548 3.64588C10.121 3.99422 9.91017 4.35737 9.72342 4.73303C9.40257 5.47827 9.1604 6.25497 9.00083 7.05051C8.83636 7.84351 8.74269 8.64956 8.72091 9.45914C8.72091 9.86274 8.72091 10.2598 8.72091 10.6634C8.72091 11.067 8.72091 11.4511 8.79252 11.8808C8.87715 12.7075 9.05291 13.4822 9.15707 14.1983C9.20946 14.5369 9.24422 14.878 9.26122 15.2203C9.26122 15.5523 9.26122 15.8713 9.22868 16.2423C9.17009 16.9389 9.03989 17.6354 8.90969 18.3971C8.76745 19.1849 8.6718 19.9805 8.62326 20.7796C8.48108 22.4305 8.62646 24.0934 9.05291 25.6946C9.27751 26.4964 9.57382 27.2763 9.93824 28.025Z" fill="white"/>
<path d="M25.5161 6.74439C26.4046 6.54341 27.3132 6.44513 28.2242 6.45146C29.1267 6.45455 30.0262 6.55714 30.9062 6.7574C31.7774 6.95166 32.6292 7.224 33.4515 7.57112L34.0635 7.83803L34.6624 8.13097C34.8567 8.239 35.0566 8.33679 35.2613 8.42392C35.4682 8.516 35.6875 8.5774 35.9122 8.6062H35.9904C36.1175 8.62002 36.2461 8.6075 36.3682 8.56942C36.4903 8.53134 36.6032 8.4685 36.6999 8.38485C36.8902 8.21997 37.0079 7.98676 37.0273 7.73573C37.0468 7.48471 36.9666 7.23611 36.8041 7.04383C36.6343 6.85091 36.4368 6.6842 36.2182 6.5491C35.9962 6.42669 35.7681 6.31587 35.5347 6.2171L34.8316 5.93718L34.109 5.70282C33.1422 5.40893 32.1473 5.21693 31.1406 5.12995C30.1432 5.05064 29.1406 5.0659 28.1461 5.17553C27.1657 5.29253 26.1981 5.49955 25.2557 5.79396C25.1305 5.82763 25.0239 5.90963 24.9592 6.02195C24.8945 6.13426 24.877 6.26768 24.9107 6.39285C24.9444 6.51802 25.0264 6.62469 25.1387 6.6894C25.251 6.7541 25.3844 6.77154 25.5096 6.73787L25.5161 6.74439Z" fill="white"/>
<path d="M18.7459 23.0058C18.7755 22.9403 18.791 22.8693 18.7915 22.7975C18.7992 22.6179 18.7354 22.4426 18.6139 22.3102C18.4924 22.1777 18.3233 22.0989 18.1438 22.0912C17.9642 22.0834 17.7889 22.1473 17.6565 22.2687C17.524 22.3902 17.4452 22.5593 17.4374 22.7389C17.3775 23.7232 17.5539 24.7075 17.9517 25.6097C18.3505 26.4805 18.9643 27.2354 19.7354 27.8035C19.8141 27.8558 19.9102 27.8749 20.0029 27.8566C20.0955 27.8383 20.1772 27.7841 20.2301 27.7059C20.2801 27.6259 20.2972 27.5297 20.2778 27.4375C20.2584 27.3452 20.2039 27.2641 20.126 27.2111C19.4509 26.7497 18.9492 26.0762 18.7003 25.2972C18.4636 24.5491 18.4796 23.7439 18.7459 23.0058Z" fill="white"/>
<path d="M29.1681 21.424C29.0918 21.791 29.0418 22.163 29.0184 22.5371C28.9614 23.2874 29.0295 24.042 29.2202 24.77C29.3945 25.4921 29.6777 26.1836 30.06 26.8206C30.4369 27.4729 30.9471 28.0385 31.5572 28.4806L31.7916 28.6433L32.0454 28.78C32.2128 28.8713 32.3869 28.9496 32.5662 29.0143C32.7455 29.0763 32.9281 29.1284 33.1131 29.1706C33.2953 29.2097 33.4841 29.2292 33.6729 29.2748H33.7315C33.7794 29.2838 33.8288 29.2826 33.8762 29.2712C33.9237 29.2598 33.9682 29.2385 34.0068 29.2086C34.0454 29.1787 34.0772 29.141 34.1001 29.0979C34.1231 29.0548 34.1366 29.0074 34.1399 28.9587C34.1431 28.91 34.136 28.8612 34.119 28.8154C34.1019 28.7697 34.0754 28.7281 34.0411 28.6933C34.0068 28.6586 33.9656 28.6315 33.9201 28.6139C33.8745 28.5963 33.8258 28.5886 33.7771 28.5912H33.7315C33.5739 28.5849 33.4171 28.5653 33.2628 28.5326L33.0349 28.461L32.8136 28.3764C32.6673 28.3131 32.5259 28.2391 32.3905 28.1551L32.1952 28.0314L32.0064 27.8817C31.5085 27.4744 31.1025 26.9663 30.8151 26.3909C30.2312 25.2309 30.0046 23.9236 30.1641 22.6348C30.2051 22.314 30.2681 21.9964 30.3529 21.6843C30.431 21.3719 30.5352 21.0724 30.6524 20.7339C30.9268 20.0272 31.0936 19.2833 31.1471 18.5271C31.1647 18.1153 31.123 17.7032 31.0234 17.3032C30.9245 16.8993 30.7642 16.5129 30.5482 16.1575C30.3189 15.7782 30.0047 15.4574 29.6303 15.2201C29.241 14.9783 28.7857 14.8644 28.3284 14.8946C28.2339 14.9018 28.1434 14.9355 28.0674 14.992C27.9914 15.0484 27.9329 15.1253 27.8987 15.2136C27.8538 15.3389 27.8592 15.4768 27.9138 15.5982C27.9685 15.7196 28.0681 15.8151 28.1917 15.8646H28.2372C28.4796 15.9467 28.7016 16.0799 28.8882 16.2552C29.0771 16.4286 29.2375 16.6307 29.3634 16.8541C29.6569 17.3411 29.8101 17.8999 29.8061 18.4685C29.7795 19.105 29.6611 19.7342 29.4546 20.3368C29.3439 20.6948 29.2527 21.0594 29.1681 21.424Z" fill="white"/>
<path d="M41.986 12.2257C42.927 13.8865 43.6262 15.673 44.0626 17.5312L44.1407 17.8762C44.1407 18.0129 44.1863 18.1171 44.2058 18.2342L44.323 18.8852C44.4011 19.3279 44.4857 19.7836 44.5899 20.1872C44.6135 20.2797 44.6417 20.371 44.6745 20.4606V20.4931L44.7592 20.6364C44.8685 20.8104 44.9881 20.9778 45.1172 21.1376C45.3915 21.4431 45.7019 21.7141 46.0416 21.9448C46.7381 22.4266 47.5714 22.8171 48.3851 23.2468L48.997 23.5788L49.303 23.748L49.4592 23.8327C49.529 23.8745 49.5963 23.9201 49.661 23.9694C49.9356 24.1651 50.1589 24.4241 50.312 24.7245C50.4604 25.0367 50.5233 25.3826 50.4943 25.727C50.4608 26.0647 50.3445 26.3889 50.1558 26.6709C50.0006 26.8822 49.831 27.0823 49.648 27.2698L49.4071 27.5302C49.3616 27.5758 49.3551 27.5953 49.3225 27.6279C49.2966 27.6566 49.2727 27.6871 49.2509 27.719C49.1609 27.8472 49.0947 27.9905 49.0556 28.1421C48.9677 28.439 48.9885 28.7575 49.1142 29.0405C49.1756 29.1809 49.2591 29.3106 49.3616 29.4246C49.3864 29.4559 49.4148 29.4843 49.4462 29.5092L49.4918 29.5483H49.5243C49.622 29.6329 49.7131 29.711 49.8368 29.8347C49.9817 29.9827 50.0927 30.1604 50.1623 30.3555C50.2503 30.5956 50.2616 30.8572 50.1948 31.1041C50.1455 31.2809 50.0709 31.4498 49.9735 31.6054C49.8929 31.7349 49.8038 31.8589 49.7066 31.9764L49.5764 32.1196L49.5178 32.1847C49.5438 32.1447 49.5602 32.0992 49.5658 32.0518C49.5715 32.0044 49.5662 31.9563 49.5503 31.9113C49.5368 31.8668 49.5122 31.8265 49.4787 31.7941L49.4267 31.7551C49.5966 31.8232 49.7548 31.9177 49.8954 32.035C50.0922 32.1943 50.2353 32.4102 50.3055 32.6534C50.3645 32.8797 50.3645 33.1173 50.3055 33.3435C50.2663 33.5001 50.2072 33.651 50.1297 33.7927C50.0776 33.9163 50.0125 34.027 49.954 34.1377L49.6154 34.717C49.5496 34.8405 49.5077 34.9752 49.4918 35.1141C49.4777 35.2445 49.4955 35.3763 49.5438 35.4982C49.573 35.5736 49.6101 35.6456 49.6545 35.713L49.8303 36.0125C50.1455 36.4532 50.3671 36.954 50.4813 37.4837C50.4944 37.644 50.4944 37.8051 50.4813 37.9654C50.4813 38.0435 50.4813 38.1282 50.4813 38.2063L50.4357 38.4016C50.4056 38.5343 50.3665 38.6648 50.3185 38.7922C50.2771 38.9212 50.2271 39.0474 50.1688 39.1697C49.9331 39.6731 49.5884 40.1179 49.1598 40.4717C48.7489 40.804 48.2844 41.0637 47.7862 41.2398C47.3127 41.407 46.8245 41.5291 46.328 41.6044C45.3882 41.7219 44.4431 41.7914 43.4963 41.8127C41.616 41.8414 39.7373 41.6932 37.8848 41.37C37.7955 41.3547 37.71 41.3218 37.6334 41.2734C37.5568 41.225 37.4904 41.162 37.4381 41.0879C37.3858 41.0139 37.3486 40.9303 37.3287 40.8418C37.3087 40.7534 37.3063 40.6619 37.3217 40.5726C37.3371 40.4833 37.3699 40.3978 37.4183 40.3212C37.4667 40.2445 37.5298 40.1782 37.6038 40.1259C37.6779 40.0736 37.7615 40.0364 37.8499 40.0164C37.9383 39.9965 38.0298 39.9941 38.1192 40.0095C39.8778 40.369 41.6687 40.5479 43.4637 40.5433C43.9129 40.5433 44.3555 40.5433 44.8047 40.4977C45.2539 40.4522 45.7096 40.4326 46.1067 40.374C46.9155 40.2931 47.6883 39.9988 48.346 39.5213C48.6277 39.2875 48.8506 38.9909 48.997 38.6554C49.0384 38.5737 49.0732 38.4888 49.1012 38.4016C49.1012 38.3104 49.1533 38.2193 49.1793 38.1217L49.2118 37.9849C49.2118 37.9524 49.2118 37.9198 49.2118 37.8873C49.2182 37.818 49.2182 37.7483 49.2118 37.679C49.1773 37.5198 49.1203 37.3664 49.0426 37.2233L48.8929 36.9629L48.7041 36.6765L48.5153 36.3901C48.4367 36.2627 48.3671 36.13 48.307 35.9929C48.1779 35.6889 48.12 35.3594 48.1377 35.0295C48.1586 34.7115 48.245 34.4012 48.3916 34.1181L48.4437 34.014L48.4893 33.9359L48.5674 33.7861L48.7301 33.4932C48.8119 33.3459 48.8795 33.1911 48.9319 33.031C48.9319 32.9919 48.9319 32.9985 48.9319 33.031C48.9291 33.0526 48.9291 33.0745 48.9319 33.0961C48.8974 33.0622 48.8548 33.0375 48.8082 33.0245L48.7366 32.9919L48.6325 32.9334L48.4437 32.7836C48.3321 32.6667 48.2477 32.5267 48.1963 32.3735C48.1417 32.2203 48.1233 32.0566 48.1425 31.8951C48.1617 31.7336 48.218 31.5787 48.307 31.4426L48.3786 31.345L48.4307 31.2799L48.4893 31.2213L48.5869 31.1106C48.6393 31.053 48.6852 30.9897 48.7236 30.9218C48.7515 30.8851 48.7715 30.843 48.7822 30.7982C48.7783 30.8219 48.7783 30.846 48.7822 30.8697C48.7822 30.8697 48.7822 30.8698 48.7366 30.8177C48.6911 30.7656 48.6129 30.7005 48.5413 30.6354L48.3916 30.4922C48.3329 30.4422 48.2805 30.3854 48.2354 30.3229C48.0305 30.0951 47.8674 29.8328 47.7536 29.5483C47.6397 29.2638 47.5737 28.9625 47.5584 28.6564C47.5428 28.3507 47.5803 28.0445 47.669 27.7516C47.7528 27.4592 47.8872 27.1838 48.0661 26.9378L48.2028 26.7556L48.346 26.5993L48.5804 26.352C48.7236 26.1957 48.9254 26.0004 48.9775 25.9223C49.0487 25.8216 49.0955 25.7057 49.1142 25.5838C49.13 25.4602 49.1124 25.3346 49.0632 25.2201C49.014 25.1055 48.9349 25.0064 48.8343 24.9328L48.7431 24.8677L48.6064 24.7896L48.307 24.6139L47.7211 24.2753L46.5298 23.5853C46.1122 23.3496 45.708 23.0909 45.319 22.8106C44.9052 22.5147 44.531 22.1668 44.2058 21.7756C44.051 21.5665 43.9076 21.3492 43.7762 21.1246L43.685 20.9684V20.9293L43.6525 20.8642C43.6275 20.8258 43.6078 20.7842 43.5939 20.7405C43.5474 20.6127 43.5082 20.4823 43.4767 20.3499C43.353 19.8682 43.2814 19.4125 43.2033 18.9503L43.0926 18.2994L43.0406 17.9739L42.969 17.6484C42.6307 15.903 41.8908 14.2604 40.8077 12.8507C40.6972 12.7143 40.6454 12.5396 40.6637 12.365C40.682 12.1904 40.769 12.0303 40.9053 11.9198C41.0417 11.8093 41.2165 11.7575 41.391 11.7758C41.5656 11.7941 41.7258 11.881 41.8363 12.0174C41.8603 12.0446 41.88 12.0754 41.8948 12.1085L41.986 12.2257Z" fill="white"/>
<path d="M7.84204 150.416C8.11033 146.322 8.6892 142.255 9.57364 138.249C10.0228 136.251 10.5371 134.259 11.149 132.286C11.761 130.314 12.4835 128.38 13.2322 126.486C13.9808 124.592 14.7555 122.717 15.478 120.842C16.2006 118.967 16.9167 117.092 17.5091 115.191C18.1209 113.314 18.5973 111.395 18.9347 109.45C19.2744 107.516 19.4118 105.553 19.3449 103.591C19.2652 101.618 19.0015 99.6559 18.5572 97.7317C18.1169 95.7898 17.5648 93.8749 16.9037 91.9966C16.2527 90.1022 15.5106 88.2209 14.7555 86.3396L12.4966 80.6826C10.919 76.8959 9.68795 72.9739 8.8185 68.965C8.41203 66.946 8.17038 64.8974 8.09592 62.8393C8.05686 61.8042 8.06337 60.7822 8.09592 59.7536C8.12847 58.7251 8.20658 57.6965 8.29772 56.6745C8.31974 56.5232 8.39879 56.386 8.51868 56.2911C8.63857 56.1962 8.79022 56.1508 8.94254 56.1641C9.09486 56.1774 9.23632 56.2485 9.33793 56.3628C9.43953 56.477 9.49359 56.6258 9.48901 56.7787C9.48901 56.7787 9.48901 56.7787 9.48901 56.8177C9.33929 57.8072 9.23513 58.7706 9.17003 59.8057C9.10493 60.8407 9.0854 61.8107 9.11144 62.8067C9.17654 64.8054 9.43157 66.7933 9.87309 68.7436C10.8183 72.6541 12.1259 76.468 13.779 80.1358C14.5797 81.9911 15.4064 83.8464 16.2202 85.7082C17.0339 87.5699 17.8476 89.4448 18.5832 91.3586C19.3359 93.2849 19.9728 95.2543 20.4906 97.2565C21.0092 99.285 21.3362 101.358 21.467 103.448C21.588 105.553 21.4833 107.666 21.1546 109.749C20.8252 111.806 20.3443 113.836 19.7159 115.823C19.0975 117.776 18.3684 119.729 17.6133 121.63C16.8581 123.53 16.0444 125.392 15.2697 127.254C12.1999 134.703 10.1884 142.545 9.29372 150.553C9.28403 150.649 9.25516 150.743 9.2088 150.828C9.16243 150.913 9.09951 150.988 9.02372 151.049C8.94793 151.11 8.8608 151.155 8.76743 151.181C8.67406 151.208 8.57634 151.215 8.47999 151.204C8.29294 151.179 8.12243 151.084 8.0037 150.937C7.88497 150.791 7.82709 150.604 7.84204 150.416Z" fill="white"/>
<path d="M0.609664 150.429C0.974483 146.627 1.56136 142.849 2.3673 139.115C2.77742 137.247 3.25915 135.391 3.8255 133.562C4.09891 132.644 4.39836 131.733 4.71083 130.828C5.0233 129.923 5.36181 129.031 5.67428 128.139C6.97624 124.566 8.27819 120.979 9.35882 117.405C9.91866 115.608 10.4199 113.798 10.8431 111.976L11.1425 110.602L11.4159 109.229C11.5005 108.773 11.5656 108.311 11.6438 107.855C11.7219 107.399 11.7609 106.937 11.8195 106.481C12.0169 104.654 12.0322 102.811 11.8651 100.981C11.6918 99.1443 11.3651 97.3261 10.8886 95.5446L10.5111 94.2426L10.0944 92.9081L9.64525 91.6062L9.16352 90.3042L8.66227 89.0022L8.14149 87.7003C7.78345 86.828 7.43192 85.9492 7.08039 85.0964C5.68741 81.5347 4.49213 77.8989 3.50001 74.2055C2.47331 70.5077 1.77835 66.7257 1.42339 62.9045C1.41248 62.8277 1.41728 62.7495 1.4375 62.6746C1.45773 62.5997 1.49296 62.5297 1.54105 62.4688C1.58913 62.4079 1.64908 62.3575 1.71726 62.3205C1.78544 62.2834 1.86041 62.2607 1.93766 62.2535C2.01482 62.2436 2.0932 62.2492 2.16812 62.2702C2.24303 62.2912 2.31295 62.3271 2.3737 62.3757C2.43445 62.4243 2.4848 62.4846 2.52173 62.5531C2.55865 62.6216 2.58141 62.6968 2.58863 62.7743C2.85682 66.5356 3.57589 70.2511 4.73036 73.8409C5.84353 77.4408 7.33428 80.904 8.812 84.3868C9.54761 86.1184 10.2897 87.8891 10.9732 89.6792L11.481 91.0268L11.9562 92.3938L12.3924 93.7804L12.783 95.18C13.2852 97.0693 13.6185 98.9994 13.779 100.948C13.9315 102.9 13.8923 104.862 13.6618 106.807C13.1223 110.624 12.2176 114.38 10.9602 118.023C9.7494 121.656 8.35631 125.184 6.96321 128.732C6.6247 129.611 6.27969 130.503 5.9542 131.381C5.79146 131.824 5.6222 132.26 5.47248 132.683C5.32275 133.106 5.16651 133.569 5.02981 134.018C4.45694 135.808 3.96221 137.624 3.53256 139.46C2.69262 143.114 2.09889 146.82 1.75538 150.553C1.74157 150.705 1.66797 150.845 1.55077 150.942C1.43357 151.04 1.28238 151.087 1.13045 151.073C0.978517 151.06 0.838288 150.986 0.740622 150.869C0.642957 150.752 0.595852 150.6 0.609664 150.449V150.429Z" fill="white"/>
<path d="M38.4836 123.641C39.1355 125.788 39.6444 127.976 40.0069 130.19C40.3715 132.39 40.6579 134.604 40.8271 136.823C40.9964 139.043 41.094 141.257 41.1591 143.477L41.2112 145.143V146.803V150.129C41.2112 150.224 41.1735 150.316 41.1064 150.383C41.0392 150.45 40.9481 150.488 40.8532 150.488C40.7582 150.488 40.6672 150.45 40.6 150.383C40.5329 150.316 40.4952 150.224 40.4952 150.129L40.4626 148.476L40.3975 146.823L40.3129 145.169L40.2087 143.516C40.0525 141.315 39.8051 139.121 39.5577 136.941C39.3104 134.76 38.9719 132.586 38.5617 130.431C38.3664 129.357 38.1451 128.283 37.9108 127.222C37.7871 126.688 37.6504 126.167 37.5202 125.633C37.39 125.099 37.2207 124.592 37.071 124.064C37.0157 123.879 37.0365 123.679 37.1287 123.508C37.2208 123.338 37.3769 123.211 37.5625 123.156C37.7481 123.101 37.948 123.122 38.1183 123.214C38.2886 123.306 38.4154 123.462 38.4706 123.648L38.4836 123.641Z" fill="white"/>
<path d="M42.5392 124.207C42.4806 124.292 42.4025 124.409 42.3374 124.52L42.1226 124.858L41.719 125.548C41.4521 126.017 41.1852 126.499 40.9443 126.961C40.7019 127.431 40.4847 127.913 40.2933 128.406C40.1027 128.892 39.946 129.39 39.8246 129.897C39.7886 130.01 39.7118 130.105 39.6094 130.164C39.507 130.223 39.3862 130.242 39.2707 130.216C39.1551 130.191 39.0532 130.124 38.9847 130.027C38.9162 129.931 38.8861 129.813 38.9002 129.695C38.9718 129.396 39.0434 129.135 39.1216 128.862C39.1997 128.588 39.2908 128.328 39.3819 128.068C39.5642 127.54 39.766 127.013 39.9874 126.505C40.2087 125.998 40.4496 125.509 40.6839 125.008L41.0354 124.259L41.2177 123.888C41.2828 123.758 41.3414 123.641 41.426 123.491C41.4688 123.417 41.5258 123.351 41.5939 123.298C41.6621 123.245 41.7399 123.207 41.8231 123.184C41.9062 123.161 41.9929 123.155 42.0784 123.166C42.1638 123.177 42.2463 123.204 42.3211 123.247C42.3959 123.29 42.4616 123.347 42.5143 123.415C42.5671 123.483 42.6059 123.561 42.6286 123.644C42.6512 123.727 42.6573 123.814 42.6464 123.9C42.6356 123.985 42.608 124.068 42.5652 124.142C42.5602 124.165 42.5514 124.187 42.5392 124.207Z" fill="white"/>
<path d="M131.398 89.4318H110.664L106.986 96.6837H98.608L116.79 62.3772H125.37L143.552 96.6837H135.089L131.398 89.4318ZM128.11 83.0588L121.041 69.0953L113.88 83.0588H128.11Z" fill="white"/>
<path d="M189.478 62.3772V96.6837H181.634V72.8189L166.609 91.196H166.212L151.168 72.8189V96.6837H143.552V62.3772H152.079L166.609 80.5134L181.113 62.3772H189.478Z" fill="white"/>
<path d="M222.268 89.4318H201.534L197.856 96.6837H189.478L207.66 62.3772H216.24L234.422 96.6837H225.959L222.268 89.4318ZM218.981 83.0588L211.878 69.0953L204.77 83.0588H218.981Z" fill="white"/>
<path d="M273.487 62.3772V96.6837H266.626L242.019 71.888V96.6837H234.422V62.3772H242.774L265.91 85.9035V62.3772H273.487Z" fill="white"/>
<path d="M318.476 79.5305C318.476 90.213 310.196 96.6837 297.254 96.6837H279.027V62.3772H297.254C310.196 62.3772 318.476 68.8479 318.476 79.5305ZM310.489 79.5305C310.489 72.4739 304.903 69.0432 296.668 69.0432H286.865V90.0112H296.668C304.903 90.0112 310.476 86.5871 310.476 79.5305H310.489Z" fill="white"/>
<path d="M348.083 89.4318H327.355L323.677 96.6837H315.293L333.481 62.3772H342.055L360.243 96.6837H351.78L348.083 89.4318ZM344.828 83.0588L337.719 69.0953L330.61 83.0588H344.828Z" fill="white"/>
<path d="M106.452 118.153V126.095H129.093V132.859H106.452V145.703H98.6406V111.39H133.338V118.153H106.452Z" fill="white"/>
<path d="M170.854 139.134V145.703H135.512V111.39H170.365V117.958H143.311V125.015H165.9V131.583H143.311V139.134H170.854Z" fill="white"/>
<path d="M203.988 145.703L194.133 134.037H181.764V145.703H173.952V111.39H197.628C206.006 111.39 212.334 115.263 212.334 122.717C212.334 128.576 208.428 132.175 202.771 133.497L213.363 145.703H203.988ZM197.205 127.567C201.326 127.567 204.366 126.584 204.366 122.762C204.366 118.941 201.332 117.958 197.205 117.958H181.686V127.567H197.205Z" fill="white"/>
<path d="M255.012 111.39V145.703H248.151L223.544 120.901V145.703H215.947V111.39H224.279L247.415 134.929V111.39H255.012Z" fill="white"/>
<path d="M287.802 138.444H267.068L263.39 145.703H255.012L273.194 111.39H281.774L299.956 145.703H291.493L287.802 138.444ZM284.547 132.078L277.406 118.108L270.304 132.078H284.547Z" fill="white"/>
<path d="M339.021 111.39V145.703H332.153L307.553 120.901V145.703H299.956V111.39H308.288L331.418 134.929V111.39H339.021Z" fill="white"/>
<path d="M384.036 128.55C384.036 139.232 375.756 145.703 362.814 145.703H344.587V111.39H362.814C375.73 111.39 384.036 117.86 384.036 128.55ZM376.049 128.55C376.049 121.486 370.463 118.056 362.228 118.056H352.399V139.037H362.202C370.437 139.037 376.023 135.58 376.023 128.55H376.049Z" fill="white"/>
<path d="M422.685 139.134V145.703H387.343V111.39H422.196V117.958H395.142V125.015H417.731V131.583H395.142V139.134H422.685Z" fill="white"/>
<path d="M462.193 135.313C462.193 142.077 455.767 146.777 443.614 146.777C434.936 146.777 427.88 144.329 422.639 139.87L427.144 134.526C431.362 138.431 436.804 140.209 443.809 140.209C450.814 140.209 454.296 138.907 454.296 136.049C454.296 133.191 450.768 132.416 442.878 131.733C433.074 130.9 423.961 128.745 423.961 121.389C423.961 114.228 431.603 110.322 442.188 110.322C449.687 110.322 456.152 112.184 460.52 115.53L456.204 120.972C452.428 118.082 447.741 116.904 442.188 116.858C437.527 116.806 431.844 117.639 431.844 120.764C431.844 123.706 436.746 124.019 443.562 124.539C454.498 125.457 462.193 127.768 462.193 135.313Z" fill="white"/>
<path d="M105.04 42.8868C105.044 40.5842 105.231 38.2855 105.6 36.0125C105.84 34.6584 108.477 36.4161 108.236 37.4512C108.314 39.5278 107.995 40.9664 108.073 43.6029C110.872 40.5693 113.587 37.373 117.024 35.6935C117.675 35.3745 119.023 36.1752 119.661 37.0541C120.539 39.1307 120.618 40.8102 121.34 43.6029L129.087 37.2949C129.647 36.8913 131.163 37.692 131.723 38.5969C132.524 40.1918 132.921 43.0691 134.523 44.4557C135.393 45.0564 136.42 45.3891 137.478 45.4126C140.036 45.4126 148.746 41.5067 149.847 39.5538C150.087 39.1567 151.149 39.7947 150.172 41.5523C148.968 43.7136 143.779 47.626 139.223 47.626C137.324 47.6074 135.469 47.0522 133.872 46.0245C132.812 45.2866 131.891 44.3677 131.15 43.31C130.642 42.5708 130.239 41.7646 129.953 40.9144C127.474 43.0413 124.889 45.0403 122.206 46.9034C121.555 47.2289 120.045 46.4282 119.57 45.5493C118.676 43.3863 118.006 41.1373 117.571 38.8377C113.496 41.4417 111.257 45.7056 108.145 48.4267C107.494 48.9865 105.424 47.3851 105.183 46.4281C105.118 45.2043 105.04 44.0065 105.04 42.8868Z" fill="black"/>
<path d="M146.982 44.9633C146.727 44.2169 146.593 43.4346 146.585 42.6459C146.585 39.1306 148.981 35.5372 152.893 35.3744C155.373 35.3744 157.691 37.77 156.799 40.0875C155.757 42.6459 152.32 44.5663 149.528 44.5663C149.768 46.083 152.561 48.6349 155.386 48.6349C162.892 48.6349 168.491 43.043 171.843 39.5212C173.679 37.6073 173.36 39.4431 172.24 41.6824C170.007 46.3174 164.891 50.2298 159.377 50.5488C154.651 50.7961 148.577 49.9173 146.982 44.9633ZM149.456 42.6459C152.815 41.1291 155.054 38.9678 154.176 38.089C152.496 36.416 149.378 40.6474 149.456 42.6459ZM150.895 31.6964C151.773 30.5832 155.77 28.3439 157.131 27.2242C157.847 26.6643 160.484 28.2657 159.767 29.3008C154.332 32.5557 152.255 33.9358 151.136 33.057C150.335 32.5752 150.576 31.9373 150.895 31.6964Z" fill="black"/>
<path d="M171.348 46.4802C171.348 41.8452 171.426 37.5292 171.511 34.4175C171.589 30.6614 171.752 25.9548 171.986 21.0725C165.359 21.6323 159.123 22.114 152.73 23.2272C151.214 23.4681 149.534 21.3915 150.895 21.0725C156.571 20.0374 162.241 19.3929 172.071 18.5988C172.39 12.3624 172.787 6.05441 173.106 1.10046C173.028 -0.201497 176.146 0.299758 176.361 1.89465C175.801 5.89166 175.326 12.1215 175.007 18.3579C175.782 18.3429 176.555 18.2885 177.324 18.1951C184.114 17.7199 193.221 16.9973 201.053 16.9973C205.609 16.9973 209.763 17.2382 212.64 17.8762C213.37 18.2573 213.999 18.8061 214.476 19.4776C214.554 20.1286 214.157 20.4345 213.519 20.3564C209.271 19.6305 204.964 19.3079 200.655 19.3929C192.102 19.3929 182.754 20.1936 176.686 20.6949C176.076 20.7854 175.461 20.8376 174.844 20.8512L174.284 34.2743C174.206 39.391 173.965 46.8968 173.965 54.1682C173.965 62.3185 174.284 70.1498 175.326 73.9059C175.567 75.7417 173.086 74.0621 172.527 72.3891C171.667 69.5704 171.348 57.1888 171.348 46.4802Z" fill="black"/>
<path d="M194.36 41.0444C194.695 42.1597 194.748 43.3404 194.517 44.4815C193.801 48.4786 190.526 50.4771 186.848 50.2362C185.545 50.123 184.315 49.5843 183.348 48.7032C182.381 47.8221 181.731 46.6475 181.497 45.3604C180.937 42.0078 183.014 38.1996 184.85 37.5486C185.012 37.5486 185.091 37.4705 185.253 37.4705C185.572 36.3508 186.132 35.472 187.727 35.5566C189.719 35.8237 191.542 36.8185 192.844 38.3493C194.806 38.5715 196.78 38.678 198.755 38.6683C202.511 38.6683 205.622 38.3493 206.345 38.3493C208.662 38.2712 208.103 39.3063 206.182 39.9507C204.425 40.5692 199.23 41.2852 194.36 41.0444ZM184.29 45.0935C184.693 47.4109 185.592 48.2898 187.089 48.2117C190.604 48.0554 192.362 43.4986 191.086 40.6212C189.509 40.4105 187.988 39.8953 186.607 39.1045L186.451 39.2607C185.41 40.0874 183.893 42.8866 184.29 45.0935Z" fill="black"/>
<path d="M225.275 65.4172C224.169 64.0013 223.453 62.3202 223.199 60.5414C222.732 58.1986 222.464 55.8206 222.398 53.4327C222.242 51.1934 222.164 48.7197 222.164 46.1613C222.164 44.0847 222.242 41.8453 222.242 39.6906V36.8132C220.562 41.2855 217.288 48.5309 211.696 48.9605C209.933 49.0162 208.207 48.4492 206.82 47.3591C204.906 45.8423 204.106 44.1042 204.106 42.4052C204.114 40.8799 204.716 39.418 205.785 38.33C207.38 36.8132 209.691 35.6936 213.135 35.6936C214.943 35.6936 216.742 35.9367 218.486 36.4162L219.137 36.6505C220.673 32.513 221.902 28.268 222.815 23.9499L222.971 21.0726C223.531 14.2829 225.048 2.84517 225.132 2.69545C225.373 1.49765 228.01 2.9363 228.166 4.1341C228.088 7.72751 227.209 17.1537 226.805 20.9098C226.649 22.5112 226.011 24.7506 225.926 26.1177C225.607 30.1147 225.451 33.2329 225.373 36.2664C225.21 40.0226 225.132 43.7787 225.132 47.3721C225.087 49.8527 225.167 52.3339 225.373 54.8063C225.411 57.1121 225.651 59.4101 226.089 61.6741C226.326 62.7095 226.646 63.7241 227.046 64.7077L227.209 64.8704H227.287C227.853 65.1489 228.31 65.6067 228.589 66.1724C228.823 66.8234 228.504 67.1358 227.626 66.9731C226.712 66.6837 225.898 66.1448 225.275 65.4172ZM218.167 38.649L218.245 38.4928C217.166 38.3411 216.079 38.2606 214.99 38.2519C211.553 38.2519 209.639 39.1307 208.441 40.4066C207.531 41.3022 207.004 42.5155 206.97 43.7917C206.944 44.2252 207.017 44.6589 207.183 45.0602C207.348 45.4615 207.603 45.8202 207.927 46.1092C208.504 46.6018 209.246 46.8576 210.004 46.8253C213.929 46.3957 216.487 42.0081 218.167 38.649Z" fill="black"/>
<path d="M246.608 37.373C247.65 37.4511 248.763 37.4511 249.961 37.4511C259.393 37.4511 272.973 35.8562 276.488 34.8146C277.048 34.6584 280.003 33.9358 280.394 34.5738C281.045 35.2248 277.673 36.5267 277.139 36.6504C271.462 38.4927 259.797 40.4912 250.931 40.4912C250.13 40.4912 249.329 40.4065 248.613 40.4065C248.976 41.6243 249.058 42.9085 248.854 44.1627C248.294 47.359 245.417 50.5553 239.825 50.0736C238.13 49.9094 236.539 49.1834 235.304 48.011C234.069 46.8385 233.261 45.287 233.009 43.6028C232.931 40.8883 233.888 37.8547 236.85 36.2533C237.49 36.1174 238.156 36.174 238.764 36.4161L238.842 36.4942C238.523 35.6153 238.926 35.2964 240.046 35.2964C242.414 35.1577 244.751 35.897 246.608 37.373ZM239.577 38.2518L239.337 38.0891C238.139 38.5708 236.863 39.391 236.381 41.8452C235.821 44.7225 236.941 47.5217 239.499 47.997C242.611 48.6479 245.41 46.3239 245.651 42.9649C245.742 41.9042 245.428 40.8484 244.772 40.0094L243.653 39.7686C242.455 39.6124 240.059 38.7335 239.577 38.2518Z" fill="black"/>
<path d="M496.324 153.619C510.169 153.619 521.393 142.395 521.393 128.55C521.393 114.704 510.169 103.48 496.324 103.48C482.478 103.48 471.254 114.704 471.254 128.55C471.254 142.395 482.478 153.619 496.324 153.619Z" fill="white"/>
<path d="M486.142 121.617C489.299 121.617 492.652 122.847 492.652 125.672C492.652 127.912 490.575 129.2 487.698 130.079C485.55 130.73 483.792 131.538 483.369 132.208H492.912V135.085H478.897V133.438C479.235 130.919 481.546 128.79 485.407 127.632C487.294 127.033 488.792 126.623 488.792 125.744C488.792 124.865 487.386 124.442 485.947 124.442C485.043 124.456 484.152 124.65 483.325 125.013C482.497 125.376 481.751 125.902 481.13 126.558L479.079 124.513C480.427 122.866 483.044 121.617 486.142 121.617Z" fill="#2B8C79"/>
<path d="M493.68 133.477C493.745 132.956 493.998 132.476 494.392 132.127C494.786 131.779 495.293 131.587 495.819 131.587C496.345 131.587 496.852 131.779 497.246 132.127C497.64 132.476 497.893 132.956 497.957 133.477C497.957 134.545 497.085 135.326 495.829 135.326C494.572 135.326 493.68 134.545 493.68 133.477Z" fill="#2B8C79"/>
<path d="M497.443 128.55C497.443 124.136 500.581 121.578 505.587 121.578C510.593 121.578 513.75 124.136 513.75 128.55C513.75 132.963 510.612 135.515 505.587 135.515C500.561 135.515 497.443 132.976 497.443 128.55ZM509.883 128.55C509.883 126.043 508.275 124.683 505.606 124.683C502.937 124.683 501.31 126.043 501.31 128.55C501.31 131.056 502.911 132.416 505.606 132.416C508.301 132.416 509.883 131.023 509.883 128.55Z" fill="#2B8C79"/>
</g>
<defs>
<clipPath id="clip0_1_43">
<rect width="522" height="154" fill="white" transform="translate(0 0.275604)"/>
</clipPath>
</defs>
</svg>
