<svg width="327" height="100" viewBox="0 0 327 100" fill="none" xmlns="http://www.w3.org/2000/svg">
<path d="M81.8831 42.7307V31.0028V8.1769L66.6657 42.7307H64.3396L49.2193 8.1769V28.8705V42.6824H46.4084V28.7251V10.8424V0.229015H53.2416L67.8288 33.2322L82.3677 0.229015H89.2009V10.8424V31.0513V42.7307H81.8831Z" fill="white"/>
<path d="M169.989 8.08099V29.9376L147.744 0.230034H140.426V10.698V32.0215V42.7318H143.237V32.0215V6.23941L170.958 42.7318H173.139V8.56561V2.6047L169.989 0.230034V8.08099Z" fill="white"/>
<path d="M216.367 32.0691C214.67 35.3645 212.054 37.9331 208.565 39.8231C205.026 41.7615 200.181 42.6824 194.123 42.6824C194.123 42.6824 192.184 42.6824 182.152 42.7307V10.3092H189.421V11.327V31.0028V39.6776C190.682 39.7262 192.039 39.7746 193.347 39.7746C196.449 39.7746 198.92 39.4837 200.858 38.9023C202.749 38.3207 204.494 37.2545 206.044 35.6067C207.644 34.0075 208.855 31.9721 209.68 29.3066C210.552 26.6896 210.988 23.7334 210.988 20.2925C210.988 15.9794 210.26 12.4901 208.759 9.7277C207.352 6.96532 205.512 5.22066 203.38 4.29986C201.634 3.52446 199.308 3.08831 196.594 2.99139V0.180542C198.775 0.229004 200.52 0.32593 201.876 0.471319C203.815 0.713632 205.802 1.24672 207.934 2.11904C210.115 2.99139 212.005 4.29986 213.652 5.99606C215.301 7.69226 216.56 9.82462 217.53 12.3931C218.451 14.9617 218.886 17.7725 218.886 20.7772C218.936 25.0418 218.112 28.8221 216.367 32.0691Z" fill="white"/>
<path d="M196.642 0.180542H169.989V3.03984H196.642V0.180542Z" fill="white"/>
<path d="M20.4324 0.230034H18.3485L15.3923 7.35406L0.756531 42.7318H3.95507L17.2823 10.5526L22.274 22.5713L29.398 39.8725H18.4939L17.2823 42.7318H30.6095H34.8257H38.4605L20.4324 0.230034Z" fill="white"/>
<path d="M116.534 0.229015H114.45L111.494 7.35304L96.8581 42.7307H100.057L113.384 10.5516L118.375 22.5703L125.499 39.8715H114.547L113.384 42.7307H126.663H130.879H134.562L116.534 0.229015Z" fill="white"/>
<path d="M240.842 0.229015H238.758L235.801 7.35304L221.165 42.7307H224.412L237.692 10.5516L242.682 22.5703L249.806 39.8715H238.903L237.692 42.7307H251.018H255.234H258.918L240.842 0.229015Z" fill="white"/>
<path d="M72.0451 79.7516L71.0273 79.703V87.6509V99.282H63.7595V87.6509V67.7813V56.7802H73.4032C77.2791 56.7802 80.4775 57.0225 82.9986 57.7495C85.5179 58.4764 87.6019 59.5426 89.2019 61.2873C90.8003 63.0804 91.5762 65.1643 91.5762 67.6359C91.5762 70.4952 90.5584 72.9183 88.4261 74.9537C82.9018 80.4785 72.0451 79.7516 72.0451 79.7516ZM72.8209 59.8818L70.9789 59.8334V76.9407H75.05C79.1211 76.9407 80.8179 75.0507 81.5437 74.3723C82.1743 73.7422 82.7083 73.0153 83.0954 71.9975C83.4341 70.9798 83.6776 69.7198 83.6776 68.169C83.6776 65.4066 82.9986 63.4196 81.6905 61.8688C80.5276 60.4634 77.6194 59.8818 72.8209 59.8818Z" fill="white"/>
<path d="M312.082 99.1366C308.108 98.7489 302.971 95.5988 300.256 91.3342L302.292 89.0564C305.831 94.0965 308.011 95.6958 311.887 96.3258C314.408 96.7135 316.444 96.0835 317.994 94.8235C319.545 93.5149 320.368 91.9642 320.563 90.2679C320.757 88.5234 320.32 86.9725 319.253 85.6639C318.187 84.3071 316.007 82.7077 312.615 80.8177C309.61 79.1699 307.332 77.6676 305.831 76.5046C304.23 75.2445 303.019 73.6937 302.292 71.9006C301.516 70.059 301.226 68.169 301.419 66.2305C301.76 63.2258 303.068 60.8027 305.345 59.058C307.623 57.3133 310.386 56.5864 313.487 56.9256C315.182 57.1195 316.831 57.5556 318.332 58.2826C319.884 59.0095 321.289 60.4634 323.131 62.8866L320.757 64.8251C320.029 63.6135 319.691 63.1773 319.253 62.6927C317.703 60.948 315.765 59.8819 313.536 59.688C311.306 59.4457 309.755 59.9303 308.737 60.8511C307.671 61.9173 307.042 63.0804 306.897 64.3889C306.702 65.9882 307.187 67.3936 308.253 68.6536C309.416 69.9621 311.548 71.6098 314.94 73.5484C318.187 75.4384 320.515 76.9407 321.968 78.0068C323.518 79.1699 324.634 80.6238 325.457 82.4655C326.233 84.3555 326.523 86.3909 326.329 88.6203C325.942 92.1096 324.439 94.9204 321.823 96.9074C319.302 98.8458 315.958 99.6213 312.082 99.1366Z" fill="white"/>
<path d="M78.2484 79.4124L93.2729 99.282H85.8099L70.9789 79.703L74.1773 78.6854L78.2484 79.4124Z" fill="white"/>
<path d="M0.756561 56.7802V67.7328V82.8047V85.2278V88.1356V99.282H8.12283V88.087V85.2278V83.7739V82.8047V78.3462H11.6616H19.9489L17.8166 75.5353H11.4681H8.12283V68.9928V67.7813V59.5426H12.7762H26.1039L23.9716 56.7802H0.756561Z" fill="white"/>
<path d="M51.6914 78.3946L49.6075 75.5837H43.3074H39.9154V68.8959V67.7328V59.5911H44.6154H57.9431V59.5426L55.8108 56.7802H32.5491V67.6843V82.7077V85.1794V88.0387V99.282H57.798V96.4713H44.5187H39.9154V88.0387V85.1794V83.6286V82.7077V78.3946H43.5009H51.6914Z" fill="white"/>
<path d="M287.656 78.3946H279.465H275.832V82.7077V83.6286V85.1794V88.0387V96.4713H280.483H293.763V99.282H268.465V88.0387V85.1794V82.7077V67.6843V56.7802H291.775L293.908 59.5426V59.5911H280.582H275.832V67.7328V68.8959V75.5837H279.272H285.572L287.656 78.3946Z" fill="white"/>
<path d="M129.474 64.6312V86.4878L107.181 56.7802H99.9118V67.2482V88.5717V99.282H102.675V88.5717V62.7896L130.443 99.282H132.624V65.1158V56.7802H129.474V64.6312Z" fill="white"/>
<path d="M211.375 64.6322V86.4888L189.131 56.7812H181.813V67.2492V88.5727V99.283H184.625V88.5727V62.7906L212.345 99.283H214.525V65.1168V59.1559L211.375 56.7812V64.6322Z" fill="white"/>
<path d="M257.755 88.6203C256.059 91.9157 253.442 94.4843 249.952 96.3743C246.415 98.3127 241.568 99.2336 235.51 99.2336C235.51 99.2336 233.573 99.2336 223.54 99.282V66.8605H230.81V67.8782V87.554V96.2288C232.069 96.2774 233.426 96.3258 234.736 96.3258C237.837 96.3258 240.308 96.035 242.247 95.4535C244.137 94.8719 245.881 93.8057 247.433 92.1579C249.031 90.5587 250.244 88.5234 251.067 85.8578C251.939 83.2408 252.376 80.2846 252.376 76.8438C252.376 72.5306 251.649 69.0413 250.146 66.2789C248.741 63.5165 246.899 61.7719 244.766 60.8511C243.023 60.0757 240.695 59.6395 237.982 59.5426V56.7318C240.163 56.7802 241.908 56.8771 243.265 57.0225C245.204 57.2648 247.191 57.7979 249.323 58.6703C251.504 59.5426 253.394 60.8511 255.041 62.5473C256.689 64.2435 257.949 66.3758 258.918 68.9444C259.839 71.5129 260.275 74.3237 260.275 77.3284C260.323 81.593 259.499 85.3733 257.755 88.6203Z" fill="white"/>
<path d="M238.031 56.7318H211.375V59.591H238.031V56.7318Z" fill="white"/>
<path d="M157.921 56.7802H155.789L152.882 63.9042L138.246 99.282H141.445L154.771 67.1028L159.763 79.1215L166.887 96.4227H155.934L154.771 99.282H168.05H172.267H175.95L157.921 56.7802Z" fill="white"/>
</svg>
