<svg width="620" height="43" viewBox="0 0 620 43" fill="none" xmlns="http://www.w3.org/2000/svg">
<path d="M81.8831 42.5502V30.8222V7.99635L66.6657 42.5502H64.3396L49.2193 7.99635V28.6899V42.5018H46.4084V28.5446V10.6618V0.0484695H53.2416L67.8288 33.0516L82.3677 0.0484695H89.2009V10.6618V30.8708V42.5502H81.8831Z" fill="white"/>
<path d="M169.989 7.90045V29.7571L147.744 0.0494919H140.426V10.5174V31.841V42.5512H143.237V31.841V6.05886L170.958 42.5512H173.139V8.38507V2.42416L169.989 0.0494919V7.90045Z" fill="white"/>
<path d="M216.367 31.8885C214.67 35.1839 212.054 37.7525 208.565 39.6426C205.026 41.581 200.181 42.5018 194.123 42.5018C194.123 42.5018 192.184 42.5018 182.152 42.5502V10.1287H189.421V11.1464V30.8222V39.4971C190.682 39.5456 192.039 39.594 193.347 39.594C196.449 39.594 198.92 39.3032 200.858 38.7217C202.749 38.1401 204.494 37.074 206.044 35.4262C207.644 33.827 208.855 31.7916 209.68 29.1261C210.552 26.5091 210.988 23.5529 210.988 20.112C210.988 15.7988 210.26 12.3095 208.759 9.54716C207.352 6.78478 205.512 5.04011 203.38 4.11932C201.634 3.34392 199.308 2.90776 196.594 2.81084V0C198.775 0.0484623 200.52 0.145388 201.876 0.290777C203.815 0.53309 205.802 1.06618 207.934 1.9385C210.115 2.81084 212.005 4.11932 213.652 5.81552C215.301 7.51171 216.56 9.64408 217.53 12.2126C218.451 14.7811 218.886 17.592 218.886 20.5967C218.936 24.8613 218.112 28.6415 216.367 31.8885Z" fill="white"/>
<path d="M196.642 0H169.989V2.8593H196.642V0Z" fill="white"/>
<path d="M20.4324 0.0494919H18.3485L15.3923 7.17352L0.756531 42.5512H3.95507L17.2823 10.372L22.274 22.3908L29.398 39.692H18.4939L17.2823 42.5512H30.6095H34.8257H38.4605L20.4324 0.0494919Z" fill="white"/>
<path d="M116.534 0.0484695H114.45L111.494 7.17249L96.8581 42.5502H100.057L113.384 10.371L118.375 22.3898L125.499 39.691H114.547L113.384 42.5502H126.663H130.879H134.562L116.534 0.0484695Z" fill="white"/>
<path d="M240.842 0.0484695H238.758L235.801 7.17249L221.165 42.5502H224.412L237.692 10.371L242.682 22.3898L249.806 39.691H238.903L237.692 42.5502H251.018H255.234H258.918L240.842 0.0484695Z" fill="white"/>
<path d="M365.206 23.0198L364.189 22.9713V30.9192V42.5502H356.921V30.9192V11.0495V0.0484695H366.564C370.44 0.0484695 373.639 0.290783 376.16 1.01772C378.679 1.74466 380.763 2.81084 382.363 4.5555C383.962 6.34862 384.737 8.43252 384.737 10.9041C384.737 13.7634 383.72 16.1865 381.587 18.222C376.063 23.7468 365.206 23.0198 365.206 23.0198ZM365.982 3.15009L364.14 3.10162V20.2089H368.211C372.282 20.2089 373.979 18.3189 374.705 17.6405C375.336 17.0105 375.87 16.2835 376.257 15.2658C376.595 14.248 376.839 12.988 376.839 11.4372C376.839 8.67483 376.16 6.68785 374.852 5.13705C373.689 3.73163 370.781 3.15009 365.982 3.15009Z" fill="white"/>
<path d="M605.244 42.4049C601.269 42.0171 596.132 38.8671 593.417 34.6025L595.453 32.3247C598.992 37.3648 601.172 38.964 605.048 39.594C607.569 39.9818 609.605 39.3518 611.155 38.0917C612.707 36.7832 613.529 35.2325 613.724 33.5361C613.918 31.7916 613.481 30.2408 612.415 28.9322C611.348 27.5754 609.168 25.976 605.776 24.086C602.771 22.4382 600.493 20.9359 598.992 19.7728C597.392 18.5128 596.18 16.9619 595.453 15.1689C594.677 13.3273 594.387 11.4372 594.58 9.49872C594.921 6.49403 596.229 4.0709 598.506 2.32624C600.784 0.581584 603.547 -0.145356 606.648 0.193883C608.344 0.387734 609.992 0.823897 611.494 1.55083C613.045 2.27779 614.45 3.73165 616.292 6.1548L613.918 8.09331C613.19 6.88173 612.852 6.44556 612.415 5.96094C610.865 4.21629 608.926 3.15011 606.697 2.95625C604.468 2.71394 602.916 3.19858 601.898 4.11936C600.832 5.18554 600.203 6.34864 600.058 7.65714C599.863 9.25641 600.348 10.6618 601.414 11.9219C602.577 13.2303 604.71 14.8781 608.102 16.8166C611.348 18.7067 613.676 20.2089 615.129 21.2751C616.679 22.4382 617.795 23.8921 618.618 25.7337C619.394 27.6238 619.684 29.6591 619.491 31.8885C619.103 35.3778 617.6 38.1887 614.984 40.1756C612.463 42.1141 609.119 42.8896 605.244 42.4049Z" fill="white"/>
<path d="M371.41 22.6806L386.434 42.5502H378.971L364.14 22.9713L367.339 21.9537L371.41 22.6806Z" fill="white"/>
<path d="M293.918 0.0484695V11.001V26.0729V28.496V31.4038V42.5502H301.284V31.3553V28.496V27.0421V26.0729V21.6145H304.823H313.11L310.978 18.8036H304.629H301.284V12.2611V11.0495V2.81084H305.937H319.265L317.133 0.0484695H293.918Z" fill="white"/>
<path d="M344.853 21.6628L342.769 18.852H336.469H333.077V12.1641V11.001V2.85931H337.777H351.104V2.81084L348.972 0.0484695H325.71V10.9526V25.976V28.4477V31.3069V42.5502H350.959V39.7395H337.68H333.077V31.3069V28.4477V26.8968V25.976V21.6628H336.662H344.853Z" fill="white"/>
<path d="M580.817 21.6628H572.627H568.993V25.976V26.8968V28.4477V31.3069V39.7395H573.644H586.924V42.5502H561.626V31.3069V28.4477V25.976V10.9526V0.0484695H584.937L587.069 2.81084V2.85931H573.743H568.993V11.001V12.1641V18.852H572.433H578.733L580.817 21.6628Z" fill="white"/>
<path d="M422.635 7.89943V29.7561L400.342 0.0484695H393.073V10.5164V31.84V42.5502H395.836V31.84V6.05784L423.604 42.5502H425.785V8.38405V0.0484695H422.635V7.89943Z" fill="white"/>
<path d="M504.537 7.90045V29.7571L482.293 0.0494919H474.975V10.5174V31.841V42.5512H477.786V31.841V6.05886L505.506 42.5512H507.687V8.38507V2.42416L504.537 0.0494919V7.90045Z" fill="white"/>
<path d="M550.917 31.8885C549.22 35.1839 546.604 37.7525 543.113 39.6426C539.576 41.581 534.729 42.5018 528.671 42.5018C528.671 42.5018 526.734 42.5018 516.701 42.5502V10.1287H523.971V11.1464V30.8222V39.4971C525.231 39.5456 526.587 39.594 527.897 39.594C530.998 39.594 533.47 39.3032 535.408 38.7217C537.299 38.1401 539.042 37.074 540.594 35.4262C542.192 33.827 543.405 31.7916 544.228 29.1261C545.1 26.5091 545.538 23.5529 545.538 20.112C545.538 15.7988 544.81 12.3095 543.307 9.54716C541.902 6.78478 540.06 5.04011 537.928 4.11932C536.184 3.34392 533.857 2.90776 531.144 2.81084V0C533.324 0.0484623 535.07 0.145388 536.426 0.290777C538.365 0.53309 540.352 1.06618 542.484 1.9385C544.665 2.81084 546.555 4.11932 548.202 5.81552C549.851 7.51171 551.11 9.64408 552.08 12.2126C553.001 14.7811 553.436 17.592 553.436 20.5967C553.484 24.8613 552.66 28.6415 550.917 31.8885Z" fill="white"/>
<path d="M531.192 0H504.537V2.8593H531.192V0Z" fill="white"/>
<path d="M451.082 0.0484695H448.95L446.043 7.17249L431.408 42.5502H434.606L447.932 10.371L452.924 22.3898L460.049 39.691H449.095L447.932 42.5502H461.212H465.428H469.112L451.082 0.0484695Z" fill="white"/>
</svg>
