<svg width="307" height="58" viewBox="0 0 307 58" fill="none" xmlns="http://www.w3.org/2000/svg">
<g clip-path="url(#clip0)">
<path d="M35.2614 25.7385C33.9318 22.4315 33.425 21.2661 33.425 21.2661L31.9118 17.624H24.6947L21.5435 25.7385H18.8843L28.6467 2.30179H30.1929L40.2638 25.7385H35.2614ZM28.2169 8.76647L25.466 15.5371H31.0597L28.2169 8.76647Z" fill="white"/>
<path d="M62.8185 25.7385V19.1537V8.3367L55.0982 25.7385H53.3977L45.7363 8.36948V18.021V25.7385H43.6024V17.9263V8.30756V2.30179H47.8371L55.528 19.5506L63.1894 2.30179H67.4242V8.30756V19.1537V25.7385H62.8185Z" fill="white"/>
<path d="M86.9818 25.7385C85.6523 22.4315 85.1454 21.2661 85.1454 21.2661L83.6322 17.624H76.4335L73.2823 25.7422H70.6268L80.3708 2.30179H81.917L91.9732 25.7385H86.9818ZM79.9374 8.76647L77.1901 15.5371H82.7912L79.9374 8.76647Z" fill="white"/>
<path d="M111.946 25.7385L97.3943 6.74512V19.6745V25.1886H95.264V19.6745V8.24565V2.30179H99.6824L111.266 17.6531V6.83617V2.30179H113.584V7.08383V25.7385H111.946Z" fill="white"/>
<path d="M135.312 22.4934C134.421 23.427 133.336 24.1577 132.132 24.635C131.059 25.0996 129.925 25.4099 128.764 25.5564C127.326 25.6962 125.882 25.757 124.437 25.7385H117.683V2.27264C123.431 2.30178 124.481 2.30178 124.481 2.30178C127.787 2.30178 130.475 2.79346 132.451 3.86423C134.313 4.8209 135.836 6.31752 136.818 8.15459C137.799 10.071 138.287 12.1977 138.24 14.3461C138.26 15.9103 137.999 17.4655 137.468 18.9388C137.008 20.26 136.274 21.471 135.312 22.4934ZM130.732 6.59214C130.003 5.80335 129.075 5.22133 128.044 4.90586C126.745 4.56147 125.403 4.40687 124.059 4.44696C123.471 4.44696 122.825 4.44696 122.222 4.47974V23.5933H124.94C126.824 23.5933 128.279 23.3493 129.421 22.8649C130.439 22.4352 131.368 21.5465 132.172 20.1079C132.907 18.6984 133.314 16.8883 133.314 14.5901C133.346 12.986 133.116 11.3872 132.635 9.85544C132.254 8.6417 131.598 7.53044 130.718 6.60671" fill="white"/>
<path d="M154.896 25.7385C153.566 22.4315 153.041 21.2661 153.041 21.2661L151.528 17.624H144.329L141.189 25.7385H138.533L148.285 2.30179H149.827L159.92 25.7385H154.896ZM147.851 8.76647L145.1 15.5371H150.694L147.851 8.76647Z" fill="white"/>
<path d="M7.71532 36.57H5.4896V40.6746V41.3156V44.5352H7.00647H11.8876V46.6476H7.09829H5.4896V48.7309V49.2517V50.0493V51.579V57.8907H0.887573V51.6118V50.0493V48.7309V40.6419V34.454H15.2225V36.57H7.71532Z" fill="white"/>
<path d="M24.8012 36.57H22.5461V40.6128V41.2574V44.5353H24.0887H28.9405V46.6477H24.1842H22.5461V48.669V49.1607V49.9874V51.5208V55.7456H24.7388H32.246V57.8616H17.9441V51.5208V49.9874V48.669V40.5836V34.4249H32.3084V36.57H24.8012Z" fill="white"/>
<path d="M48.4358 49.6196C48.4358 49.6196 50.1363 51.8886 52.5787 57.8907H48.4688C48.1015 56.3902 45.1302 47.4125 39.4778 47.4125L39.2317 47.3833V57.9089H34.6774V34.454H40.2087C42.3095 34.454 44.1019 34.5778 45.4902 34.9748C46.8286 35.2922 48.0472 35.9836 49.0014 36.967C49.9131 37.9524 50.4099 39.2464 50.3897 40.5836C50.4043 41.3638 50.2526 42.1383 49.9443 42.8564C49.6361 43.5744 49.1783 44.2197 48.601 44.7501C47.6885 45.5832 46.6009 46.2052 45.4167 46.5712C46.5824 47.4157 47.6041 48.44 48.4431 49.605L48.4358 49.6196ZM39.9185 36.7376L39.2391 36.7084V45.2855H41.1232C41.4675 45.2646 41.8091 45.2134 42.1442 45.1325C42.5115 45.0415 42.8531 44.9177 43.1616 44.8266C43.6429 44.6382 44.0757 44.3458 44.4287 43.9707C44.7689 43.6499 45.0216 43.249 45.1633 42.8052C45.3823 42.1854 45.4868 41.5315 45.4718 40.875C45.524 39.7313 45.1749 38.6051 44.4838 37.6881C43.9292 37.0763 42.5372 36.7376 39.9112 36.7376" fill="white"/>
<path d="M72.9077 57.8907L58.356 38.8973V51.8267V57.3408H56.2258V51.8267V40.3978V34.454H60.6405L72.2282 49.8053V38.9884V34.454H74.5457V39.2324V57.8907H72.9077Z" fill="white"/>
<path d="M94.1035 57.9089C92.7776 54.6019 92.2487 53.4365 92.2487 53.4365L90.7355 49.7944H83.5258L80.3855 57.9089H77.7301L87.4924 34.454H89.035L99.1095 57.9089H94.1035ZM87.059 40.9369L84.3118 47.7075H89.9018L87.059 40.9369Z" fill="white"/>
<path d="M119.068 57.8907L104.516 38.8973V51.8267V57.3408H102.386V51.8267V40.3978V34.454H106.804L118.388 49.8053V38.9884V34.454H120.706V39.2324V57.8907H119.068Z" fill="white"/>
<path d="M142.427 54.6311C141.534 55.5646 140.449 56.2963 139.246 56.7763C138.172 57.2382 137.039 57.5472 135.878 57.6941C134.44 57.8357 132.996 57.8965 131.551 57.8762H124.815V34.4249C130.563 34.454 131.614 34.454 131.614 34.454C134.919 34.454 137.608 34.9457 139.584 36.0165C141.441 36.9749 142.961 38.4713 143.94 40.3068C145.576 43.6775 145.809 47.551 144.59 51.091C144.127 52.4129 143.39 53.6239 142.427 54.6456V54.6311ZM137.854 38.7444C137.124 37.9568 136.196 37.375 135.165 37.0581C133.867 36.7137 132.524 36.5591 131.18 36.5992C130.593 36.5992 129.946 36.5992 129.344 36.632V55.7492H132.062C133.946 55.7492 135.4 55.5015 136.543 55.0208C137.564 54.591 138.489 53.7024 139.294 52.2637C140.028 50.8543 140.436 49.0441 140.436 46.746C140.467 45.1418 140.238 43.5431 139.756 42.0113C139.374 40.7982 138.719 39.6872 137.839 38.7626" fill="white"/>
<path d="M155.869 36.57H153.614V40.6128V41.2574V44.5353H155.157H160.008V46.6477H155.252H153.614V48.669V49.1607V49.9874V51.5208V55.7456H155.807H163.314V57.8616H149.012V51.5208V49.9874V48.669V40.5836V34.4249H163.376V36.57H155.869Z" fill="white"/>
<path d="M169.804 57.8616C167.519 57.6176 164.662 55.9022 163.068 53.2981L164.614 51.6409C166.685 54.6129 167.795 55.4105 169.774 55.7164C170.306 55.821 170.855 55.81 171.383 55.6843C171.91 55.5585 172.404 55.321 172.83 54.988C173.19 54.7241 173.492 54.3892 173.715 54.0044C173.939 53.6196 174.08 53.1932 174.13 52.7518C174.185 52.3501 174.156 51.9416 174.044 51.5517C173.932 51.1618 173.74 50.7991 173.48 50.4864C172.926 49.8126 171.813 48.9822 169.991 47.9734C168.689 47.2765 167.44 46.4878 166.252 45.6133C165.38 44.9257 164.699 44.0296 164.272 43.0092C163.822 42.0104 163.652 40.9093 163.78 39.8224C163.847 39.0247 164.082 38.2498 164.47 37.5482C164.859 36.8466 165.392 36.2341 166.035 35.7506C167.363 34.7653 169.027 34.3363 170.67 34.556C171.615 34.6511 172.535 34.91 173.388 35.3208C174.285 35.7506 175.118 36.5446 176.26 38.107L174.468 39.5638C174.198 39.0736 173.878 38.6123 173.513 38.1871C173.162 37.7534 172.726 37.3942 172.232 37.1308C171.738 36.8673 171.196 36.7052 170.637 36.6538C169.495 36.53 168.753 36.7776 168.29 37.2038C167.785 37.631 167.464 38.2348 167.394 38.89C167.345 39.261 167.381 39.6382 167.498 39.9938C167.616 40.3493 167.813 40.6741 168.074 40.9442C168.632 41.6192 169.806 42.4763 171.596 43.5155C173.355 44.5571 174.622 45.3365 175.427 45.9375C176.298 46.5822 176.98 47.446 177.403 48.4396C177.868 49.532 178.039 50.7255 177.899 51.9032C177.821 52.8145 177.553 53.6997 177.11 54.502C176.667 55.3042 176.06 56.0057 175.328 56.5614C173.814 57.6941 171.96 58.0911 169.796 57.847" fill="white"/>
<path d="M240.652 18.1667C238.448 18.1667 237.424 18.8659 236.219 20.381C235.047 21.8379 234.383 24.1069 234.383 27.2208C234.383 30.3931 235.029 32.6621 236.219 34.1189C237.409 35.5758 238.511 36.3297 240.887 36.3297C242.973 36.3297 244.263 35.6013 245.497 34.1189C246.642 32.6912 246.991 30.4769 246.991 27.25C246.991 24.1069 246.672 21.9216 245.497 20.4357C244.321 18.9497 242.926 18.1667 240.652 18.1667Z" fill="white"/>
<path d="M264.511 19.2156C263.986 18.6328 262.674 18.3123 260.169 18.3123L259.523 18.2832V26.4342H261.312C261.639 26.4142 261.963 26.3654 262.281 26.2885C262.649 26.2011 262.957 26.0845 263.251 25.9971C263.709 25.8194 264.12 25.5404 264.452 25.1813C264.777 24.8823 265.019 24.5063 265.157 24.0887C265.366 23.5044 265.466 22.8873 265.451 22.2676C265.501 21.1812 265.169 20.1113 264.511 19.2411" fill="white"/>
<path d="M288.417 3.26713e-06H170.696L190.926 47.2777C192.286 50.4577 194.56 53.1702 197.465 55.077C200.369 56.9837 203.776 58.0003 207.259 58H266.865C277.483 58 287.665 53.8175 295.173 46.3726C302.681 38.9276 306.899 28.8301 306.899 18.3014C306.895 13.4443 304.945 8.78769 301.48 5.35562C298.014 1.92354 293.315 -0.00289571 288.417 3.26713e-06ZM211.189 32.7204C211.119 33.585 210.867 34.4256 210.45 35.1882C210.034 35.9509 209.461 36.6188 208.769 37.1491C207.329 38.2418 205.569 38.606 203.513 38.3692C201.342 38.1361 198.643 36.5081 197.115 34.0352L198.584 32.4618C200.552 35.2844 201.61 36.042 203.487 36.3333C203.993 36.4314 204.515 36.4198 205.017 36.299C205.518 36.1783 205.987 35.9515 206.392 35.634C206.731 35.3813 207.014 35.062 207.223 34.696C207.432 34.3301 207.563 33.9254 207.608 33.5071C207.661 33.1249 207.633 32.7361 207.527 32.3651C207.42 31.994 207.238 31.6487 206.991 31.351C206.462 30.7136 205.408 29.9269 203.685 28.9654C202.449 28.3031 201.263 27.5546 200.134 26.7255C199.306 26.0718 198.66 25.2194 198.257 24.2489C197.828 23.3005 197.666 22.2548 197.787 21.2224C197.85 20.4643 198.073 19.7278 198.442 19.0609C198.811 18.3939 199.317 17.8113 199.928 17.3508C201.191 16.4164 202.773 16.0098 204.335 16.2182C205.228 16.3118 206.098 16.5583 206.906 16.9466C207.758 17.3545 208.552 18.112 209.635 19.598L207.935 20.9929C207.676 20.5214 207.37 20.0772 207.02 19.6672C206.687 19.2553 206.274 18.9141 205.805 18.6638C205.336 18.4136 204.821 18.2593 204.291 18.2104C203.19 18.0938 202.499 18.3269 202.058 18.7348C201.579 19.1403 201.276 19.7126 201.21 20.3337C201.163 20.6863 201.196 21.045 201.308 21.3831C201.42 21.7211 201.607 22.0297 201.856 22.2858C202.383 22.9268 203.498 23.7415 205.202 24.7297C206.873 25.7203 208.078 26.4779 208.842 27.0315C209.67 27.6478 210.317 28.471 210.719 29.417C211.157 30.4514 211.319 31.5804 211.189 32.6949V32.7204ZM223.309 18.1266V38.3838H218.964V18.1375H210.238L210.296 16.1307H232.131L232.161 18.1375H223.346L223.309 18.1266ZM248.49 35.2698C246.349 37.3385 244.204 38.3838 240.682 38.3838C237.247 38.3838 235.136 37.3385 232.969 35.299C230.736 33.2048 229.663 30.4696 229.663 27.0897C229.663 23.8119 230.765 21.124 233.038 19.1172C235.312 17.1105 237.325 16.1198 240.671 16.1198C244.016 16.1198 246.132 17.1068 248.361 19.059C250.639 21.124 251.777 23.841 251.777 27.2209C251.777 30.4987 250.675 33.2157 248.472 35.2808L248.49 35.2698ZM268.279 38.3947C267.912 36.9707 265.109 28.4409 259.74 28.4409L259.505 28.4118V38.3947H255.207V16.1307H260.463C262.458 16.1307 264.158 16.2473 265.48 16.6261C266.742 16.9301 267.889 17.5861 268.786 18.5163C269.654 19.4509 270.127 20.6803 270.108 21.9508C270.122 22.6925 269.977 23.4287 269.683 24.1111C269.389 24.7934 268.953 25.4063 268.404 25.9097C267.54 26.7078 266.507 27.3039 265.381 27.6543C266.494 28.4557 267.468 29.4297 268.268 30.5388C268.268 30.5388 269.884 32.6912 272.202 38.3947H268.279ZM289.019 18.1375H279.742V25.7057H285.82V27.7125H279.742V36.3588H288.961V38.3656H275.371V16.1016H289.019V18.1375Z" fill="white"/>
</g>
<defs>
<clipPath id="clip0">
<rect width="306" height="58" fill="white" transform="translate(0.887573)"/>
</clipPath>
</defs>
</svg>
