<svg width="1103" height="137" viewBox="0 0 1103 137" fill="none" xmlns="http://www.w3.org/2000/svg">
<path fill-rule="evenodd" clip-rule="evenodd" d="M204.041 105.097C209.429 105.097 214.019 104.782 217.81 104.15C221.602 103.518 224.562 102.969 226.69 102.503V71.5731C226.69 68.3138 226.324 65.3538 225.593 62.6932C224.861 60.0325 223.614 57.771 221.851 55.9085C220.088 54.046 217.744 52.6159 214.817 51.6182C211.89 50.6204 208.232 50.1216 203.842 50.1216C202.112 50.1216 200.4 50.2047 198.703 50.371C197.007 50.5373 195.394 50.7368 193.864 50.9696C192.334 51.2025 190.921 51.4685 189.624 51.7678C188.327 52.0672 187.246 52.3499 186.381 52.6159L188.277 64.5889C190.073 63.9237 192.201 63.4082 194.662 63.0424C197.124 62.6766 199.618 62.4936 202.146 62.4936C205.937 62.4936 208.598 63.2586 210.128 64.7885C211.657 66.3183 212.422 68.3471 212.422 70.8747V72.2716C211.491 72.0055 210.277 71.7893 208.781 71.623C207.284 71.4567 205.571 71.3736 203.642 71.3736C200.782 71.3736 198.022 71.6563 195.361 72.2217C192.7 72.7871 190.339 73.7017 188.277 74.9655C186.215 76.2293 184.569 77.9255 183.338 80.054C182.107 82.1825 181.492 84.7767 181.492 87.8364C181.492 91.0292 182.024 93.7231 183.089 95.9182C184.153 98.1132 185.683 99.8926 187.678 101.256C189.674 102.62 192.052 103.601 194.812 104.2C197.573 104.798 200.649 105.097 204.041 105.097ZM205.039 93.6234C202.312 93.6234 200.167 93.1744 198.604 92.2764C197.04 91.3784 196.259 89.7654 196.259 87.4373C196.259 86.24 196.525 85.2423 197.057 84.4441C197.589 83.6459 198.321 83.014 199.252 82.5484C200.183 82.0828 201.264 81.7668 202.495 81.6005C203.725 81.4342 205.039 81.3511 206.436 81.3511C207.434 81.3511 208.531 81.4176 209.728 81.5506C210.926 81.6837 211.824 81.8167 212.422 81.9497V93.2243C211.624 93.3573 210.56 93.4571 209.23 93.5236C207.899 93.5901 206.502 93.6234 205.039 93.6234ZM267.004 105.297C268.8 105.297 270.679 105.214 272.641 105.048C274.603 104.881 276.532 104.665 278.428 104.399C280.324 104.133 282.136 103.817 283.866 103.451C285.595 103.085 287.125 102.703 288.455 102.304V26.5747L273.589 28.9693V52.7157C271.926 51.984 270.28 51.4186 268.65 51.0195C267.02 50.6204 265.174 50.4209 263.112 50.4209C259.388 50.4209 256.078 51.0528 253.185 52.3166C250.291 53.5804 247.847 55.4096 245.851 57.8042C243.856 60.1988 242.326 63.1089 241.262 66.5345C240.198 69.9601 239.665 73.8014 239.665 78.0585C239.665 82.249 240.281 86.0239 241.511 89.3829C242.742 92.742 244.521 95.6022 246.849 97.9636C249.177 100.325 252.037 102.137 255.43 103.401C258.822 104.665 262.68 105.297 267.004 105.297ZM267.103 92.6256C263.046 92.6256 259.986 91.2288 257.924 88.4351C255.862 85.6414 254.831 81.9497 254.831 77.3601C254.831 67.7817 258.357 62.9925 265.407 62.9925C266.937 62.9925 268.45 63.1921 269.947 63.5912C271.444 63.9903 272.658 64.4891 273.589 65.0878V92.1267C272.857 92.2598 271.926 92.3762 270.795 92.476C269.664 92.5757 268.434 92.6256 267.103 92.6256ZM319.39 105.397C326.507 105.397 332.011 104.066 335.903 101.406C339.794 98.7451 341.74 94.8207 341.74 89.6324C341.74 87.4373 341.49 85.5084 340.991 83.8454C340.492 82.1825 339.628 80.6693 338.397 79.3057C337.167 77.9421 335.487 76.6783 333.358 75.5142C331.23 74.3502 328.536 73.1695 325.277 71.9722C323.68 71.3736 322.367 70.8248 321.336 70.326C320.305 69.8271 319.49 69.3615 318.891 68.9291C318.292 68.4968 317.893 68.0478 317.694 67.5821C317.494 67.1165 317.394 66.5844 317.394 65.9858C317.394 63.3916 319.723 62.0945 324.379 62.0945C326.906 62.0945 329.185 62.3273 331.213 62.793C333.242 63.2586 335.121 63.7907 336.851 64.3894L339.445 52.8155C337.715 52.1503 335.387 51.535 332.46 50.9696C329.534 50.4043 326.474 50.1216 323.281 50.1216C316.896 50.1216 311.874 51.5517 308.215 54.4119C304.557 57.2721 302.728 61.1633 302.728 66.0855C302.728 68.6132 303.093 70.7749 303.825 72.5709C304.557 74.3668 305.588 75.9133 306.918 77.2104C308.248 78.5075 309.861 79.6216 311.757 80.5529C313.653 81.4841 315.765 82.3821 318.093 83.2468C321.086 84.3776 323.314 85.392 324.778 86.2899C326.241 87.1879 326.973 88.2355 326.973 89.4328C326.973 90.9627 326.407 91.9937 325.277 92.5258C324.146 93.058 322.217 93.3241 319.49 93.3241C316.896 93.3241 314.268 93.0414 311.608 92.476C308.947 91.9106 306.353 91.129 303.825 90.1313L301.331 102.204C302.528 102.736 304.673 103.401 307.766 104.2C310.859 104.998 314.734 105.397 319.39 105.397ZM378.162 105.397C382.086 105.397 385.628 104.732 388.788 103.401C391.947 102.071 394.658 100.192 396.919 97.764C399.181 95.3362 400.91 92.4094 402.108 88.9838C403.305 85.5582 403.904 81.7834 403.904 77.6594C403.904 73.5354 403.272 69.7772 402.008 66.3848C400.744 62.9925 398.982 60.099 396.72 57.7044C394.458 55.3098 391.748 53.4474 388.588 52.1171C385.429 50.7867 381.953 50.1216 378.162 50.1216C374.437 50.1216 370.995 50.7867 367.835 52.1171C364.676 53.4474 361.948 55.3098 359.654 57.7044C357.359 60.099 355.563 62.9925 354.266 66.3848C352.969 69.7772 352.32 73.5354 352.32 77.6594C352.32 81.7834 352.952 85.5582 354.216 88.9838C355.48 92.4094 357.242 95.3362 359.504 97.764C361.766 100.192 364.476 102.071 367.636 103.401C370.795 104.732 374.304 105.397 378.162 105.397ZM378.162 92.6256C374.769 92.6256 372.142 91.2787 370.28 88.5847C368.417 85.8908 367.486 82.249 367.486 77.6594C367.486 73.0698 368.417 69.4612 370.28 66.8338C372.142 64.2064 374.769 62.8927 378.162 62.8927C381.554 62.8927 384.165 64.2064 385.994 66.8338C387.823 69.4612 388.738 73.0698 388.738 77.6594C388.738 82.249 387.823 85.8908 385.994 88.5847C384.165 91.2787 381.554 92.6256 378.162 92.6256ZM432.244 104V63.4914C433.176 63.3583 434.24 63.2419 435.437 63.1422C436.634 63.0424 437.765 62.9925 438.829 62.9925C442.288 62.9925 444.65 63.9903 445.913 65.9858C447.177 67.9813 447.809 71.3736 447.809 76.1628V104H462.676V74.3668C462.676 70.7749 462.31 67.5156 461.578 64.5889C460.846 61.6622 459.616 59.1346 457.886 57.006C456.157 54.8775 453.812 53.2312 450.852 52.0672C447.892 50.9031 444.184 50.3211 439.727 50.3211C435.337 50.3211 431.147 50.6371 427.156 51.269C423.165 51.9009 419.905 52.5827 417.378 53.3144V104H432.244Z" fill="white"/>
<path fill-rule="evenodd" clip-rule="evenodd" d="M121.201 0.379C122.165 0.128 123.16 0 124.157 0C127.291 0 130.237 1.221 132.454 3.438L132.564 3.547C135.498 6.48 136.669 10.792 135.625 14.801L106.362 127.227C105.017 132.395 100.347 136.004 95.007 136.004H81.446C76.023 136.004 71.336 132.325 70.049 127.056L58.051 77.951L8.948 65.953C3.68 64.668 0 59.981 0 54.556V40.995C0 35.656 3.609 30.988 8.777 29.641L121.201 0.379ZM15.533 51.573L70.902 65.1L84.429 120.471H92.07L119.001 17.003L15.533 43.933V51.573Z" fill="url(#paint0_linear_0_789)"/>
<path opacity="0.65" fill-rule="evenodd" clip-rule="evenodd" d="M510.541 104.708C512.623 104.708 514.656 104.627 516.64 104.464C518.624 104.301 520.429 104.089 522.056 103.829C523.682 103.568 525.113 103.324 526.349 103.096C527.585 102.868 528.529 102.656 529.179 102.461V70.6125C529.179 67.9422 528.854 65.4673 528.203 63.1877C527.553 60.9082 526.512 58.938 525.081 57.2772C523.649 55.6164 521.779 54.3138 519.47 53.3694C517.16 52.425 514.347 51.9528 511.029 51.9528C507.776 51.9528 504.995 52.1808 502.685 52.6367C500.376 53.0926 498.668 53.581 497.562 54.1021L498.44 59.6707C499.286 59.345 500.62 58.9217 502.441 58.4007C504.263 57.8796 507.028 57.6191 510.736 57.6191C513.338 57.6191 515.436 58.0262 517.03 58.8403C518.624 59.6544 519.86 60.7291 520.738 62.0642C521.616 63.3994 522.186 64.8974 522.446 66.5582C522.706 68.219 522.836 69.9287 522.836 71.6872V74.8134C522.576 74.6831 522.104 74.5366 521.421 74.3738C520.738 74.2109 519.925 74.0481 518.982 73.8853C518.038 73.7225 517.063 73.5922 516.054 73.4945C515.046 73.3968 514.086 73.348 513.176 73.348C510.118 73.348 507.288 73.6411 504.686 74.2272C502.084 74.8134 499.839 75.7415 497.953 77.0115C496.066 78.2816 494.602 79.8935 493.561 81.8474C492.52 83.8013 492 86.146 492 88.8815C492 91.7472 492.472 94.1733 493.415 96.1597C494.358 98.1462 495.659 99.7744 497.318 101.044C498.977 102.314 500.929 103.243 503.173 103.829C505.418 104.415 507.874 104.708 510.541 104.708ZM511.614 99.0417C509.597 99.0417 507.792 98.8626 506.198 98.5044C504.604 98.1462 503.238 97.5763 502.1 96.7947C500.961 96.0132 500.083 94.9711 499.465 93.6685C498.847 92.3659 498.538 90.7702 498.538 88.8814C498.538 86.7322 498.993 85.0062 499.904 83.7036C500.815 82.401 501.986 81.3752 503.417 80.6262C504.848 79.8772 506.41 79.3888 508.101 79.1608C509.793 78.9329 511.419 78.8189 512.98 78.8189C515.713 78.8189 517.86 78.998 519.421 79.3562C520.982 79.7144 522.121 80.0563 522.836 80.382V98.1625C521.535 98.423 519.958 98.6347 518.103 98.7975C516.249 98.9603 514.086 99.0417 511.614 99.0417ZM569.123 122C576.995 122 582.882 120.388 586.786 117.164C590.689 113.94 592.641 108.551 592.641 100.996V54.8836C590.819 54.2975 588.493 53.695 585.663 53.0763C582.834 52.4576 579.077 52.1482 574.393 52.1482C570.684 52.1482 567.35 52.7832 564.39 54.0532C561.43 55.3233 558.926 57.0818 556.876 59.3288C554.827 61.5757 553.25 64.2298 552.144 67.2909C551.038 70.352 550.485 73.6736 550.485 77.2558C550.485 81.6846 551.103 85.4458 552.339 88.5395C553.575 91.6332 555.218 94.157 557.267 96.1109C559.316 98.0648 561.707 99.4976 564.439 100.409C567.171 101.321 570.001 101.777 572.929 101.777C574.75 101.777 576.393 101.631 577.857 101.338C579.321 101.044 580.622 100.67 581.76 100.214C582.899 99.7581 583.858 99.3185 584.639 98.8952C585.42 98.4718 586.005 98.0973 586.395 97.7717V101.093C586.395 106.694 585.045 110.651 582.346 112.963C579.646 115.275 575.303 116.431 569.318 116.431C566.586 116.431 563.87 116.171 561.17 115.65C558.47 115.129 556.34 114.51 554.778 113.794L553.51 119.558C555.396 120.209 557.657 120.779 560.292 121.267C562.927 121.756 565.87 122 569.123 122ZM572.929 96.0132C570.977 96.0132 569.058 95.6712 567.171 94.9874C565.285 94.3035 563.61 93.2126 562.146 91.7146C560.682 90.2166 559.495 88.279 558.584 85.9018C557.673 83.5245 557.218 80.6751 557.218 77.3535C557.218 74.4877 557.608 71.8663 558.389 69.489C559.17 67.1118 560.308 65.0602 561.804 63.3343C563.301 61.6083 565.106 60.2731 567.22 59.3288C569.335 58.3844 571.758 57.9122 574.49 57.9122C577.743 57.9122 580.248 58.0587 582.004 58.3518C583.761 58.6449 585.192 58.9543 586.298 59.2799V91.8123C584.997 92.9195 583.159 93.8965 580.784 94.7431C578.41 95.5898 575.791 96.0132 572.929 96.0132ZM639.318 104.708C642.701 104.708 645.645 104.35 648.149 103.633C650.654 102.917 652.361 102.298 653.272 101.777L652.101 96.3063C651.191 96.7622 649.727 97.3158 647.71 97.9671C645.693 98.6184 642.961 98.944 639.513 98.944C633.268 98.944 628.714 97.2832 625.851 93.9616C622.989 90.64 621.46 85.8855 621.265 79.6981H656.688C656.753 79.2422 656.802 78.7538 656.834 78.2327C656.867 77.7117 656.883 77.1906 656.883 76.6696C656.883 68.2678 655.045 62.0479 651.369 58.0099C647.694 53.9718 642.766 51.9528 636.586 51.9528C633.788 51.9528 631.072 52.4901 628.437 53.5648C625.803 54.6394 623.461 56.2839 621.411 58.4984C619.362 60.7128 617.703 63.4645 616.435 66.7536C615.166 70.0426 614.532 73.9016 614.532 78.3304C614.532 82.1731 614.987 85.7064 615.898 88.9303C616.809 92.1542 618.272 94.9385 620.289 97.2832C622.306 99.6279 624.876 101.452 627.998 102.754C631.121 104.057 634.894 104.708 639.318 104.708ZM650.345 74.3249H621.46C621.59 72.1105 622.029 69.9938 622.778 67.9748C623.526 65.9557 624.567 64.1809 625.9 62.6504C627.234 61.1198 628.795 59.8986 630.584 58.9868C632.373 58.075 634.406 57.6191 636.683 57.6191C640.977 57.6191 644.295 59.0845 646.637 62.0154C648.979 64.9462 650.215 69.0494 650.345 74.3249ZM685.507 103.633V59.2799C686.158 59.0194 687.573 58.7263 689.752 58.4007C691.931 58.075 694.517 57.9122 697.51 57.9122C700.307 57.9122 702.633 58.2541 704.487 58.938C706.341 59.6218 707.837 60.7453 708.976 62.3085C710.114 63.8716 710.928 65.8906 711.415 68.3655C711.903 70.8405 712.147 73.869 712.147 77.4511V103.633H718.49V75.3996C718.49 71.9477 718.165 68.7889 717.514 65.9232C716.864 63.0574 715.774 60.5988 714.245 58.5472C712.717 56.4956 710.667 54.9162 708.098 53.809C705.528 52.7018 702.324 52.1482 698.486 52.1482C693.867 52.1482 689.963 52.4738 686.776 53.1251C683.588 53.7764 681.051 54.3626 679.164 54.8836V103.633H685.507ZM763.704 104.708C766.436 104.708 769.055 104.399 771.559 103.78C774.064 103.161 775.902 102.526 777.073 101.875L775.706 96.404C774.861 96.8599 773.511 97.3972 771.657 98.0159C769.803 98.6347 767.509 98.944 764.777 98.944C761.459 98.944 758.646 98.4393 756.336 97.4298C754.027 96.4202 752.14 95.0199 750.676 93.2289C749.213 91.4378 748.156 89.2885 747.505 86.781C746.854 84.2735 746.529 81.5218 746.529 78.5258C746.529 71.8825 747.977 66.7536 750.872 63.1389C753.767 59.5242 758.011 57.7168 763.606 57.7168C766.339 57.7168 768.518 57.9122 770.144 58.303C771.771 58.6937 773.234 59.2148 774.535 59.8661L776.194 54.3952C774.893 53.6787 773.055 53.0926 770.681 52.6367C768.306 52.1808 765.753 51.9528 763.021 51.9528C759.443 51.9528 756.222 52.5878 753.36 53.8578C750.497 55.1279 748.058 56.9352 746.041 59.2799C744.025 61.6246 742.479 64.4252 741.406 67.6817C740.333 70.9382 739.796 74.5529 739.796 78.5258C739.796 82.4336 740.316 85.9995 741.357 89.2234C742.398 92.4473 743.911 95.2153 745.895 97.5275C747.879 99.8396 750.367 101.614 753.36 102.852C756.352 104.089 759.8 104.708 763.704 104.708ZM798.964 42.7695C800.265 42.7695 801.371 42.3299 802.282 41.4506C803.192 40.5713 803.648 39.3827 803.648 37.8847C803.648 36.3868 803.192 35.1981 802.282 34.3189C801.371 33.4396 800.265 33 798.964 33C797.663 33 796.557 33.4396 795.646 34.3189C794.735 35.1981 794.28 36.3868 794.28 37.8847C794.28 39.3827 794.735 40.5713 795.646 41.4506C796.557 42.3299 797.663 42.7695 798.964 42.7695ZM802.184 103.633V53.1251H795.841V103.633H802.184ZM841.933 104.708C844.015 104.708 846.048 104.627 848.032 104.464C850.016 104.301 851.821 104.089 853.448 103.829C855.074 103.568 856.505 103.324 857.741 103.096C858.977 102.868 859.921 102.656 860.571 102.461V70.6125C860.571 67.9422 860.246 65.4673 859.595 63.1877C858.945 60.9082 857.904 58.938 856.473 57.2772C855.041 55.6164 853.171 54.3138 850.862 53.3694C848.552 52.425 845.739 51.9528 842.421 51.9528C839.168 51.9528 836.387 52.1808 834.077 52.6367C831.768 53.0926 830.06 53.581 828.954 54.1021L829.833 59.6707C830.678 59.345 832.012 58.9217 833.833 58.4007C835.655 57.8796 838.42 57.6191 842.128 57.6191C844.73 57.6191 846.828 58.0262 848.422 58.8403C850.016 59.6544 851.252 60.7291 852.13 62.0642C853.008 63.3994 853.578 64.8974 853.838 66.5582C854.098 68.219 854.228 69.9287 854.228 71.6872V74.8134C853.968 74.6831 853.496 74.5366 852.813 74.3738C852.13 74.2109 851.317 74.0481 850.374 73.8853C849.43 73.7225 848.455 73.5922 847.446 73.4945C846.438 73.3968 845.478 73.348 844.568 73.348C841.51 73.348 838.68 73.6411 836.078 74.2272C833.476 74.8134 831.231 75.7415 829.345 77.0115C827.458 78.2816 825.994 79.8935 824.953 81.8474C823.912 83.8013 823.392 86.146 823.392 88.8815C823.392 91.7472 823.864 94.1733 824.807 96.1597C825.75 98.1462 827.051 99.7744 828.71 101.044C830.369 102.314 832.321 103.243 834.565 103.829C836.81 104.415 839.266 104.708 841.933 104.708ZM843.006 99.0417C840.99 99.0417 839.184 98.8626 837.59 98.5044C835.997 98.1462 834.63 97.5763 833.492 96.7947C832.353 96.0132 831.475 94.9711 830.857 93.6685C830.239 92.3659 829.93 90.7702 829.93 88.8814C829.93 86.7322 830.385 85.0062 831.296 83.7036C832.207 82.401 833.378 81.3752 834.809 80.6262C836.24 79.8772 837.802 79.3888 839.493 79.1608C841.185 78.9329 842.811 78.8189 844.372 78.8189C847.105 78.8189 849.252 78.998 850.813 79.3562C852.374 79.7144 853.513 80.0563 854.228 80.382V98.1625C852.927 98.423 851.35 98.6347 849.496 98.7975C847.641 98.9603 845.478 99.0417 843.006 99.0417ZM888.512 104.806C890.204 104.806 891.521 104.285 892.465 103.243C893.408 102.201 893.88 100.93 893.88 99.4325C893.88 97.9345 893.408 96.6645 892.465 95.6224C891.521 94.5803 890.204 94.0593 888.512 94.0593C886.821 94.0593 885.504 94.5803 884.56 95.6224C883.617 96.6645 883.145 97.9345 883.145 99.4325C883.145 100.93 883.617 102.201 884.56 103.243C885.504 104.285 886.821 104.806 888.512 104.806ZM937.922 104.708C940.654 104.708 943.273 104.399 945.777 103.78C948.282 103.161 950.12 102.526 951.291 101.875L949.925 96.404C949.079 96.8599 947.729 97.3972 945.875 98.0159C944.021 98.6347 941.728 98.944 938.995 98.944C935.678 98.944 932.864 98.4393 930.554 97.4298C928.245 96.4202 926.358 95.0199 924.895 93.2289C923.431 91.4378 922.374 89.2885 921.723 86.781C921.073 84.2735 920.747 81.5218 920.747 78.5258C920.747 71.8825 922.195 66.7536 925.09 63.1389C927.985 59.5242 932.23 57.7168 937.824 57.7168C940.557 57.7168 942.736 57.9122 944.362 58.303C945.989 58.6937 947.453 59.2148 948.754 59.8661L950.413 54.3952C949.112 53.6787 947.274 53.0926 944.899 52.6367C942.525 52.1808 939.971 51.9528 937.239 51.9528C933.661 51.9528 930.441 52.5878 927.578 53.8578C924.716 55.1279 922.276 56.9352 920.259 59.2799C918.243 61.6246 916.698 64.4252 915.624 67.6817C914.551 70.9382 914.014 74.5529 914.014 78.5258C914.014 82.4336 914.535 85.9995 915.576 89.2234C916.616 92.4473 918.129 95.2153 920.113 97.5275C922.097 99.8396 924.586 101.614 927.578 102.852C930.571 104.089 934.019 104.708 937.922 104.708ZM990.064 104.806C993.447 104.806 996.537 104.171 999.334 102.901C1002.13 101.631 1004.55 99.8558 1006.6 97.5763C1008.65 95.2967 1010.25 92.5287 1011.39 89.2722C1012.52 86.0157 1013.09 82.401 1013.09 78.4281C1013.09 74.4552 1012.52 70.8405 1011.39 67.584C1010.25 64.3275 1008.65 61.5432 1006.6 59.2311C1004.55 56.919 1002.13 55.1279 999.334 53.8578C996.537 52.5878 993.447 51.9528 990.064 51.9528C986.681 51.9528 983.591 52.5878 980.794 53.8578C977.996 55.1279 975.573 56.919 973.524 59.2311C971.474 61.5432 969.88 64.3275 968.742 67.584C967.604 70.8405 967.034 74.4552 967.034 78.4281C967.034 82.401 967.604 86.0157 968.742 89.2722C969.88 92.5287 971.474 95.2967 973.524 97.5763C975.573 99.8558 977.996 101.631 980.794 102.901C983.591 104.171 986.681 104.806 990.064 104.806ZM990.064 99.0417C985.055 99.0417 981.086 97.1855 978.159 93.4731C975.231 89.7607 973.768 84.7457 973.768 78.4281C973.768 72.1105 975.231 67.0792 978.159 63.3342C981.086 59.5893 985.055 57.7168 990.064 57.7168C995.073 57.7168 999.042 59.5893 1001.97 63.3342C1004.9 67.0792 1006.36 72.1105 1006.36 78.4281C1006.36 84.7457 1004.9 89.7607 1001.97 93.4731C999.042 97.1855 995.073 99.0417 990.064 99.0417ZM1041.33 103.633V59.2799C1041.91 59.0194 1043.26 58.7263 1045.38 58.4007C1047.49 58.075 1050.08 57.9122 1053.14 57.9122C1055.87 57.9122 1058.06 58.3192 1059.72 59.1334C1061.38 59.9475 1062.67 61.1524 1063.58 62.7481C1064.49 64.3438 1065.09 66.3628 1065.38 68.8052C1065.67 71.2475 1065.82 74.1295 1065.82 77.4511V103.633H1072.16V74.9111C1072.16 72.5664 1072.02 70.3357 1071.72 68.219C1071.43 66.1023 1070.99 64.1972 1070.41 62.5038C1070.73 62.2433 1071.27 61.8525 1072.02 61.3315C1072.77 60.8105 1073.73 60.2894 1074.9 59.7684C1076.07 59.2473 1077.45 58.8077 1079.04 58.4495C1080.64 58.0913 1082.41 57.9122 1084.36 57.9122C1086.96 57.9122 1089.08 58.3192 1090.7 59.1334C1092.33 59.9475 1093.58 61.1524 1094.46 62.7481C1095.34 64.3438 1095.93 66.3628 1096.22 68.8052C1096.51 71.2475 1096.66 74.1295 1096.66 77.4511V103.633H1103V75.3996C1103 72.0128 1102.77 68.8866 1102.32 66.0209C1101.86 63.1551 1100.98 60.6965 1099.68 58.6449C1098.38 56.5933 1096.54 54.9976 1094.17 53.8578C1091.79 52.7181 1088.69 52.1482 1084.85 52.1482C1082.51 52.1482 1080.38 52.3761 1078.46 52.8321C1076.54 53.288 1074.86 53.8416 1073.43 54.4929C1072 55.1442 1070.81 55.7792 1069.87 56.3979C1068.93 57.0166 1068.29 57.4563 1067.97 57.7168C1065.11 54.0044 1060.49 52.1482 1054.11 52.1482C1049.3 52.1482 1045.38 52.4738 1042.35 53.1251C1039.33 53.7764 1036.87 54.3626 1034.98 54.8836V103.633H1041.33Z" fill="white"/>
<defs>
<linearGradient id="paint0_linear_0_789" x1="68.0001" y1="-68.002" x2="-68.0039" y2="67.9982" gradientUnits="userSpaceOnUse">
<stop stop-color="#FF9933"/>
<stop offset="0.882364" stop-color="#FF6666"/>
</linearGradient>
</defs>
</svg>
